<svg width="33" height="33" viewBox="0 0 33 33" fill="none" xmlns="http://www.w3.org/2000/svg">
<path d="M30.596 0.271606H2.92224C1.59659 0.271606 0.524658 1.31817 0.524658 2.61211V30.4C0.524658 31.6939 1.59659 32.7469 2.92224 32.7469H30.596C31.9216 32.7469 32.9999 31.6939 32.9999 30.4064V2.61211C32.9999 1.31817 31.9216 0.271606 30.596 0.271606ZM10.1594 27.9453H5.33886V12.4435H10.1594V27.9453ZM7.74913 10.3313C6.20148 10.3313 4.95195 9.08179 4.95195 7.54048C4.95195 5.99917 6.20148 4.74964 7.74913 4.74964C9.29044 4.74964 10.54 5.99917 10.54 7.54048C10.54 9.07544 9.29044 10.3313 7.74913 10.3313ZM28.1984 27.9453H23.3842V20.4101C23.3842 18.615 23.3525 16.2999 20.8788 16.2999C18.3734 16.2999 17.9928 18.2598 17.9928 20.2832V27.9453H13.1849V12.4435H17.8025V14.562H17.8659C18.5066 13.3442 20.0796 12.0566 22.4201 12.0566C27.2977 12.0566 28.1984 15.266 28.1984 19.4396V27.9453Z" fill="white" fill-opacity="0.5"/>
</svg>
