<svg width="1440" height="252" viewBox="0 0 1440 252" fill="none" xmlns="http://www.w3.org/2000/svg">
<g clip-path="url(#clip0_2_45)">
<path d="M-51.3389 128.514C-52.2563 115.291 -42.2806 103.828 -29.0576 102.91L1454.21 -8.55154e-05L1462.72 122.705C1463.64 135.928 1453.66 147.391 1440.44 148.309L-42.8255 251.219L-51.3389 128.514Z" fill="black"/>
<rect width="4218" height="63" transform="translate(-9.19141 143.633) rotate(-3.96887)" fill="black"/>
<path d="M4.97747 185.573C3.18977 185.697 1.62467 185.485 0.282156 184.936C-1.03907 184.386 -2.09588 183.487 -2.88826 182.237C-3.66084 180.965 -4.11874 179.297 -4.26197 177.232L-5.1612 164.271C-5.17744 164.037 -5.12615 163.852 -5.00731 163.715C-4.88996 163.557 -4.71423 163.47 -4.48012 163.454L-2.85204 163.341C-2.61793 163.325 -2.43187 163.387 -2.29384 163.527C-2.136 163.644 -2.04896 163.82 -2.03272 164.054L-1.12906 177.079C-0.984354 179.165 -0.387812 180.674 0.660567 181.606C1.70895 182.538 3.08442 182.945 4.787 182.827C6.46829 182.711 7.76372 182.118 8.6733 181.05C9.60417 179.98 9.99725 178.403 9.85254 176.317L8.94888 163.292C8.93264 163.058 8.98393 162.873 9.10277 162.736C9.24141 162.577 9.41714 162.49 9.62996 162.475L11.29 162.36C11.5028 162.345 11.6782 162.408 11.8162 162.548C11.9741 162.665 12.0611 162.841 12.0774 163.075L12.9766 176.036C13.1198 178.1 12.8861 179.817 12.2753 181.185C11.6843 182.53 10.7725 183.567 9.5399 184.294C8.30727 185.021 6.78646 185.447 4.97747 185.573ZM17.0605 184.414C16.8902 184.425 16.7262 184.373 16.5683 184.255C16.4318 184.136 16.3576 183.992 16.3458 183.822C16.3399 183.736 16.3454 183.661 16.3622 183.596C16.3989 183.508 16.4264 183.442 16.4447 183.398L23.0397 172.579L15.3916 163.134C15.3189 163.011 15.2774 162.875 15.2671 162.726C15.2552 162.555 15.3088 162.402 15.4276 162.265C15.5464 162.129 15.691 162.055 15.8612 162.043L17.7766 161.91C17.9894 161.895 18.1634 161.937 18.2985 162.034C18.4321 162.11 18.558 162.23 18.6762 162.393L24.8484 169.984L29.8813 161.615C29.9546 161.439 30.0521 161.304 30.1739 161.21C30.3155 161.094 30.4821 161.029 30.6736 161.015L32.4932 160.889C32.6635 160.877 32.8169 160.931 32.9535 161.049C33.09 161.168 33.1642 161.313 33.176 161.483C33.1863 161.632 33.1534 161.773 33.0771 161.907L26.9046 172.343L34.8963 182.118C34.9419 182.157 34.9782 182.219 35.0054 182.302C35.0311 182.365 35.0469 182.439 35.0528 182.524C35.0646 182.694 35.0111 182.847 34.8923 182.984C34.7735 183.12 34.6183 183.195 34.4267 183.209L32.4794 183.344C32.2879 183.357 32.1139 183.316 31.9576 183.22C31.8225 183.122 31.6973 183.013 31.582 182.893L25.0685 175.005L19.7385 183.715C19.641 183.85 19.532 183.975 19.4117 184.09C19.2914 184.205 19.1248 184.27 18.912 184.285L17.0605 184.414ZM46.2042 182.392C45.9701 182.408 45.7847 182.356 45.6482 182.238C45.5102 182.098 45.4338 181.921 45.419 181.708L43.9727 160.862C43.9564 160.628 44.0077 160.443 44.1266 160.306C44.2439 160.149 44.4197 160.062 44.6538 160.045L51.9003 159.542C54.0924 159.39 55.8817 159.598 57.2683 160.164C58.6548 160.731 59.7017 161.642 60.409 162.898C61.1147 164.132 61.5432 165.684 61.6945 167.556C61.7822 168.512 61.8512 169.352 61.9014 170.076C61.9516 170.799 61.9985 171.63 62.0422 172.568C62.1355 174.529 61.9186 176.18 61.3915 177.521C60.8841 178.839 59.9929 179.863 58.7177 180.593C57.4623 181.3 55.7599 181.729 53.6104 181.878L46.2042 182.392ZM48.4101 179.512L53.2625 179.175C54.731 179.073 55.8874 178.79 56.732 178.325C57.5765 177.86 58.1593 177.168 58.4803 176.247C58.8227 175.325 58.9535 174.129 58.8729 172.659C58.8712 172.018 58.8541 171.463 58.8216 170.995C58.7877 170.505 58.7544 170.027 58.7219 169.558C58.688 169.069 58.6283 168.517 58.5429 167.903C58.3571 165.841 57.7621 164.354 56.7577 163.44C55.7519 162.504 54.1423 162.113 51.929 162.267L47.2363 162.593L48.4101 179.512ZM73.2159 180.838C71.0239 180.99 69.2322 180.441 67.841 179.19C66.4483 177.918 65.6069 176.116 65.3167 173.784C65.2763 173.509 65.2413 173.158 65.2117 172.733C65.1807 172.286 65.1663 171.923 65.1683 171.645C65.1486 170.128 65.4082 168.784 65.9472 167.614C66.4846 166.422 67.264 165.48 68.2853 164.789C69.3278 164.097 70.5727 163.7 72.0199 163.6C73.6374 163.487 75.0124 163.734 76.145 164.34C77.299 164.944 78.2068 165.854 78.8685 167.07C79.5303 168.286 79.9195 169.734 80.0361 171.416L80.0738 171.958C80.09 172.192 80.0281 172.378 79.8879 172.516C79.7691 172.653 79.6033 172.729 79.3905 172.743L68.345 173.51C68.3465 173.531 68.3494 173.574 68.3539 173.637C68.3583 173.701 68.362 173.755 68.365 173.797C68.4681 174.667 68.7164 175.473 69.1101 176.215C69.5023 176.937 70.0339 177.509 70.7048 177.933C71.3758 178.357 72.1582 178.538 73.052 178.476C73.8182 178.423 74.4485 178.261 74.9431 177.992C75.4376 177.722 75.8349 177.438 76.1349 177.139C76.4335 176.819 76.6308 176.581 76.7269 176.425C76.8992 176.135 77.0371 175.965 77.1406 175.915C77.2426 175.844 77.4106 175.8 77.6447 175.784L79.177 175.677C79.3898 175.662 79.5645 175.715 79.7011 175.833C79.8574 175.929 79.9324 176.085 79.9258 176.299C79.9267 176.62 79.7838 177.025 79.497 177.516C79.2088 177.985 78.7822 178.463 78.2173 178.952C77.6524 179.44 76.9547 179.862 76.1241 180.219C75.292 180.555 74.3226 180.761 73.2159 180.838ZM68.1922 171.307L76.9392 170.7L76.9325 170.604C76.8661 169.647 76.6261 168.808 76.2126 168.088C75.8204 167.367 75.2797 166.816 74.5904 166.437C73.8997 166.035 73.0967 165.867 72.1816 165.93C71.2665 165.994 70.4945 166.272 69.8658 166.764C69.2569 167.234 68.808 167.853 68.5191 168.622C68.2303 169.391 68.1191 170.254 68.1855 171.211L68.1922 171.307ZM89.7385 179.692C88.5467 179.775 87.5148 179.696 86.6428 179.458C85.7709 179.219 85.0541 178.905 84.4925 178.516C83.9309 178.127 83.497 177.73 83.1908 177.323C82.9059 176.915 82.7439 176.585 82.7049 176.331C82.6674 176.098 82.7294 175.912 82.8908 175.772C83.0522 175.633 83.218 175.557 83.3882 175.545L84.7929 175.448C84.9206 175.439 85.0178 175.454 85.0846 175.492C85.1712 175.507 85.2835 175.585 85.4216 175.725C85.7189 176.004 86.0482 176.28 86.4093 176.555C86.7705 176.829 87.2025 177.045 87.7053 177.203C88.2294 177.359 88.8638 177.411 89.6087 177.359C90.6941 177.284 91.5739 177.02 92.2482 176.567C92.921 176.092 93.2293 175.451 93.1732 174.642C93.1363 174.11 92.9578 173.695 92.6377 173.396C92.3388 173.096 91.8081 172.844 91.0455 172.64C90.3042 172.435 89.2855 172.239 87.9894 172.051C86.6918 171.841 85.6558 171.55 84.8814 171.176C84.1055 170.78 83.5373 170.296 83.1767 169.722C82.8146 169.127 82.607 168.446 82.5539 167.68C82.4992 166.893 82.6809 166.121 83.0989 165.365C83.5154 164.588 84.1544 163.934 85.0158 163.404C85.8984 162.872 87.0208 162.559 88.3828 162.464C89.4895 162.388 90.4461 162.46 91.2528 162.682C92.0594 162.904 92.7329 163.21 93.2732 163.601C93.812 163.97 94.2232 164.347 94.5066 164.734C94.79 165.121 94.952 165.452 94.9925 165.727C95.0285 165.938 94.9772 166.123 94.8386 166.283C94.6985 166.421 94.5326 166.496 94.3411 166.51L93.0003 166.603C92.8513 166.613 92.7214 166.59 92.6106 166.534C92.521 166.476 92.4307 166.407 92.3397 166.328C92.1077 166.066 91.8331 165.807 91.516 165.551C91.2201 165.293 90.8322 165.096 90.3521 164.958C89.8919 164.798 89.2894 164.743 88.5445 164.795C87.4804 164.869 86.6978 165.147 86.1968 165.631C85.6957 166.115 85.4688 166.698 85.5161 167.379C85.5441 167.783 85.6863 168.137 85.9425 168.44C86.1988 168.743 86.6657 168.999 87.3431 169.209C88.0206 169.418 89.0188 169.627 90.3376 169.835C91.7615 170.014 92.894 170.31 93.7352 170.722C94.5764 171.134 95.1887 171.637 95.572 172.23C95.9553 172.824 96.1751 173.525 96.2312 174.334C96.2932 175.227 96.084 176.065 95.6036 176.847C95.1445 177.627 94.4197 178.276 93.4292 178.794C92.4585 179.289 91.2282 179.589 89.7385 179.692ZM100.499 178.625C100.286 178.639 100.101 178.588 99.9429 178.471C99.8049 178.331 99.7285 178.154 99.7137 177.941L98.6639 162.81C98.6491 162.597 98.7011 162.422 98.82 162.286C98.9586 162.126 99.1343 162.039 99.3472 162.024L100.879 161.918C101.092 161.903 101.268 161.966 101.406 162.106C101.542 162.225 101.618 162.391 101.633 162.604L102.683 177.735C102.697 177.948 102.646 178.133 102.529 178.291C102.41 178.428 102.244 178.503 102.031 178.518L100.499 178.625ZM98.8769 158.946C98.6641 158.96 98.4788 158.909 98.321 158.792C98.1829 158.652 98.1065 158.475 98.0918 158.262L97.9722 156.538C97.9574 156.326 98.0094 156.151 98.1283 156.014C98.2669 155.855 98.4426 155.768 98.6555 155.753L100.667 155.614C100.879 155.599 101.055 155.662 101.193 155.802C101.351 155.919 101.437 156.084 101.452 156.297L101.571 158.021C101.586 158.234 101.524 158.42 101.386 158.579C101.267 158.716 101.101 158.791 100.888 158.806L98.8769 158.946ZM114.304 184.724C112.857 184.824 111.652 184.715 110.689 184.397C109.747 184.077 108.991 183.659 108.421 183.143C107.873 182.646 107.463 182.13 107.19 181.592C106.941 181.075 106.794 180.658 106.751 180.34C106.715 180.129 106.766 179.943 106.905 179.784C107.064 179.623 107.24 179.536 107.432 179.523L108.964 179.417C109.156 179.403 109.318 179.435 109.452 179.511C109.585 179.587 109.704 179.761 109.809 180.032C109.958 180.342 110.174 180.68 110.456 181.045C110.74 181.432 111.157 181.745 111.708 181.985C112.261 182.246 113.016 182.343 113.974 182.277C114.974 182.207 115.805 182.011 116.467 181.687C117.13 181.384 117.609 180.88 117.902 180.176C118.218 179.491 118.335 178.563 118.254 177.393L118.104 175.222C117.639 175.917 117.007 176.517 116.208 177.021C115.407 177.505 114.379 177.79 113.123 177.877C111.932 177.96 110.896 177.828 110.017 177.483C109.136 177.116 108.394 176.601 107.792 175.937C107.21 175.251 106.749 174.459 106.409 173.563C106.09 172.666 105.874 171.719 105.762 170.721C105.7 170.127 105.659 169.542 105.641 168.965C105.614 167.962 105.696 166.994 105.888 166.061C106.101 165.127 106.449 164.28 106.931 163.519C107.434 162.757 108.097 162.144 108.92 161.681C109.742 161.196 110.749 160.913 111.941 160.83C113.218 160.741 114.288 160.913 115.152 161.345C116.036 161.754 116.767 162.281 117.347 162.925L117.251 161.552C117.237 161.339 117.288 161.154 117.405 160.996C117.544 160.837 117.72 160.75 117.932 160.735L119.401 160.633C119.614 160.618 119.8 160.68 119.959 160.819C120.118 160.958 120.206 161.133 120.22 161.346L121.294 176.829C121.393 178.255 121.237 179.538 120.824 180.679C120.432 181.818 119.705 182.745 118.643 183.46C117.602 184.174 116.156 184.595 114.304 184.724ZM113.585 175.279C114.649 175.205 115.483 174.901 116.088 174.367C116.713 173.832 117.149 173.182 117.396 172.416C117.663 171.649 117.781 170.882 117.749 170.114C117.75 169.815 117.735 169.452 117.706 169.027C117.675 168.58 117.638 168.208 117.596 167.911C117.522 167.147 117.299 166.403 116.928 165.68C116.579 164.956 116.057 164.372 115.363 163.928C114.691 163.483 113.823 163.298 112.759 163.371C111.694 163.445 110.86 163.749 110.256 164.283C109.65 164.795 109.236 165.455 109.014 166.262C108.79 167.047 108.688 167.888 108.708 168.785C108.725 169.34 108.764 169.904 108.825 170.477C108.929 171.368 109.147 172.197 109.479 172.965C109.809 173.712 110.31 174.308 110.982 174.754C111.653 175.178 112.521 175.353 113.585 175.279ZM126.321 176.833C126.108 176.848 125.922 176.796 125.765 176.679C125.627 176.539 125.55 176.363 125.535 176.15L124.486 161.018C124.471 160.805 124.523 160.631 124.642 160.494C124.78 160.335 124.956 160.248 125.169 160.233L126.669 160.129C126.882 160.114 127.057 160.177 127.196 160.317C127.353 160.434 127.44 160.599 127.454 160.812L127.552 162.217C128.055 161.455 128.706 160.821 129.505 160.317C130.324 159.79 131.393 159.48 132.713 159.389C134.096 159.293 135.288 159.52 136.288 160.071C137.309 160.599 138.101 161.389 138.666 162.44C139.229 163.47 139.56 164.698 139.659 166.124L140.284 175.126C140.299 175.339 140.247 175.525 140.13 175.682C140.011 175.819 139.845 175.895 139.633 175.909L138.036 176.02C137.824 176.035 137.638 175.984 137.48 175.866C137.342 175.726 137.266 175.55 137.251 175.337L136.638 166.494C136.534 165.004 136.092 163.87 135.311 163.09C134.528 162.289 133.435 161.937 132.03 162.034C130.71 162.126 129.676 162.625 128.926 163.533C128.196 164.417 127.883 165.605 127.987 167.094L128.6 175.937C128.615 176.15 128.553 176.336 128.414 176.495C128.295 176.632 128.13 176.707 127.917 176.722L126.321 176.833Z" fill="white"/>
<path d="M173.376 145.501L178.916 157.446L191.512 161.284L179.567 166.824L175.729 179.419L170.189 167.474L157.593 163.637L169.538 158.097L173.376 145.501Z" fill="white" fill-opacity="0.2"/>
<path d="M208.514 171.13C208.344 171.142 208.19 171.089 208.054 170.97C207.917 170.851 207.843 170.706 207.831 170.536C207.824 170.43 207.826 170.312 207.839 170.183L214.323 148.979C214.393 148.76 214.498 148.582 214.638 148.444C214.779 148.306 214.998 148.227 215.296 148.206L217.466 148.055C217.743 148.036 217.96 148.085 218.118 148.203C218.297 148.319 218.437 148.48 218.537 148.687L227.855 168.794C227.906 168.919 227.936 169.034 227.943 169.141C227.955 169.311 227.901 169.464 227.782 169.601C227.664 169.738 227.519 169.812 227.349 169.824L225.721 169.937C225.465 169.954 225.269 169.904 225.133 169.785C225.017 169.665 224.935 169.553 224.885 169.449L222.815 165.038L212.344 165.764L210.903 170.419C210.889 170.527 210.822 170.649 210.703 170.786C210.585 170.923 210.397 171 210.142 171.017L208.514 171.13ZM213.079 162.955L221.698 162.357L216.602 151.323L213.079 162.955ZM231.694 175.617C231.481 175.632 231.295 175.57 231.135 175.431C230.999 175.312 230.923 175.146 230.908 174.933L229.438 153.736C229.423 153.524 229.475 153.349 229.594 153.212C229.733 153.053 229.908 152.966 230.121 152.951L231.59 152.849C231.802 152.835 231.978 152.897 232.116 153.037C232.274 153.155 232.36 153.32 232.375 153.533L232.472 154.937C232.934 154.2 233.575 153.567 234.393 153.04C235.212 152.512 236.26 152.205 237.537 152.116C238.729 152.033 239.754 152.165 240.612 152.512C241.491 152.857 242.221 153.363 242.802 154.028C243.404 154.692 243.874 155.461 244.213 156.336C244.552 157.211 244.767 158.158 244.859 159.178C244.904 159.517 244.94 159.878 244.967 160.261C244.993 160.644 245.008 161.007 245.01 161.349C245.058 162.351 244.976 163.319 244.762 164.253C244.548 165.166 244.188 165.993 243.684 166.734C243.199 167.452 242.545 168.053 241.724 168.538C240.922 168.999 239.925 169.272 238.733 169.354C237.499 169.44 236.44 169.289 235.558 168.901C234.696 168.491 233.975 167.963 233.395 167.319L233.909 174.725C233.924 174.938 233.872 175.113 233.753 175.249C233.636 175.407 233.46 175.494 233.226 175.51L231.694 175.617ZM237.883 166.815C238.99 166.738 239.836 166.445 240.42 165.934C241.025 165.4 241.439 164.74 241.662 163.955C241.884 163.148 241.986 162.296 241.966 161.4C241.945 160.781 241.902 160.164 241.838 159.548C241.733 158.657 241.516 157.838 241.186 157.091C240.855 156.323 240.354 155.727 239.683 155.303C239.032 154.856 238.153 154.671 237.046 154.748C236.003 154.821 235.169 155.124 234.543 155.66C233.939 156.193 233.503 156.854 233.237 157.643C232.991 158.408 232.874 159.186 232.886 159.977C232.888 160.319 232.906 160.724 232.938 161.192C232.971 161.66 233.01 162.074 233.057 162.435C233.129 163.178 233.351 163.901 233.72 164.602C234.111 165.302 234.652 165.863 235.345 166.286C236.037 166.708 236.883 166.885 237.883 166.815ZM250.232 174.331C250.019 174.345 249.833 174.283 249.673 174.145C249.537 174.026 249.461 173.86 249.446 173.647L247.976 152.45C247.961 152.237 248.013 152.063 248.132 151.926C248.27 151.767 248.446 151.68 248.659 151.665L250.127 151.563C250.34 151.548 250.516 151.611 250.654 151.751C250.812 151.869 250.898 152.034 250.913 152.246L251.01 153.651C251.472 152.913 252.113 152.281 252.931 151.754C253.75 151.226 254.798 150.918 256.075 150.83C257.267 150.747 258.292 150.879 259.15 151.226C260.029 151.571 260.759 152.077 261.34 152.742C261.942 153.406 262.412 154.175 262.751 155.05C263.09 155.924 263.305 156.872 263.397 157.892C263.442 158.231 263.478 158.592 263.505 158.975C263.531 159.358 263.546 159.721 263.548 160.063C263.596 161.064 263.514 162.032 263.3 162.967C263.086 163.88 262.726 164.707 262.221 165.447C261.737 166.165 261.083 166.767 260.262 167.251C259.46 167.713 258.463 167.986 257.271 168.068C256.037 168.154 254.978 168.003 254.096 167.615C253.234 167.204 252.513 166.677 251.933 166.033L252.447 173.439C252.462 173.652 252.41 173.827 252.291 173.963C252.174 174.121 251.998 174.208 251.764 174.224L250.232 174.331ZM256.421 165.529C257.528 165.452 258.374 165.158 258.958 164.647C259.563 164.114 259.977 163.454 260.2 162.669C260.422 161.862 260.524 161.01 260.504 160.113C260.483 159.495 260.44 158.878 260.376 158.262C260.271 157.371 260.054 156.552 259.724 155.805C259.393 155.037 258.892 154.441 258.221 154.017C257.57 153.57 256.691 153.385 255.584 153.462C254.541 153.534 253.707 153.838 253.081 154.373C252.477 154.907 252.041 155.568 251.775 156.357C251.529 157.122 251.412 157.9 251.424 158.691C251.426 159.033 251.444 159.438 251.476 159.906C251.509 160.374 251.548 160.788 251.594 161.149C251.667 161.892 251.889 162.614 252.258 163.316C252.649 164.016 253.19 164.577 253.882 164.999C254.575 165.422 255.421 165.598 256.421 165.529ZM276.078 166.443C275.844 166.459 275.658 166.408 275.522 166.289C275.384 166.149 275.307 165.972 275.293 165.759L273.846 144.914C273.83 144.679 273.881 144.494 274 144.358C274.118 144.2 274.293 144.113 274.527 144.096L281.774 143.594C283.966 143.442 285.755 143.649 287.142 144.216C288.528 144.782 289.575 145.693 290.283 146.949C290.988 148.183 291.417 149.736 291.568 151.607C291.656 152.563 291.725 153.403 291.775 154.127C291.825 154.85 291.872 155.681 291.916 156.619C292.009 158.58 291.792 160.231 291.265 161.572C290.758 162.89 289.867 163.914 288.591 164.644C287.336 165.352 285.634 165.78 283.484 165.929L276.078 166.443ZM278.284 163.563L283.136 163.226C284.605 163.125 285.761 162.841 286.606 162.376C287.45 161.911 288.033 161.219 288.354 160.298C288.696 159.376 288.827 158.18 288.747 156.711C288.745 156.069 288.728 155.514 288.695 155.046C288.661 154.557 288.628 154.078 288.596 153.61C288.562 153.12 288.502 152.568 288.417 151.954C288.231 149.893 287.636 148.405 286.631 147.491C285.626 146.556 284.016 146.165 281.803 146.318L277.11 146.644L278.284 163.563ZM303.09 164.889C300.898 165.041 299.106 164.492 297.715 163.241C296.322 161.969 295.481 160.167 295.19 157.835C295.15 157.56 295.115 157.21 295.085 156.784C295.054 156.337 295.04 155.974 295.042 155.696C295.022 154.179 295.282 152.836 295.821 151.665C296.358 150.473 297.138 149.531 298.159 148.84C299.202 148.148 300.446 147.751 301.894 147.651C303.511 147.539 304.886 147.785 306.019 148.391C307.173 148.995 308.08 149.905 308.742 151.121C309.404 152.337 309.793 153.785 309.91 155.467L309.947 156.009C309.964 156.244 309.902 156.43 309.762 156.568C309.643 156.704 309.477 156.78 309.264 156.795L298.219 157.561C298.22 157.582 298.223 157.625 298.228 157.689C298.232 157.752 298.236 157.806 298.239 157.848C298.342 158.718 298.59 159.524 298.984 160.266C299.376 160.988 299.908 161.56 300.579 161.984C301.249 162.408 302.032 162.589 302.926 162.527C303.692 162.474 304.322 162.313 304.817 162.043C305.311 161.773 305.709 161.489 306.009 161.19C306.307 160.87 306.504 160.632 306.601 160.476C306.773 160.186 306.911 160.016 307.014 159.966C307.116 159.895 307.284 159.851 307.518 159.835L309.051 159.728C309.264 159.714 309.438 159.766 309.575 159.885C309.731 159.981 309.806 160.136 309.8 160.35C309.8 160.671 309.657 161.076 309.371 161.567C309.082 162.036 308.656 162.514 308.091 163.003C307.526 163.491 306.828 163.914 305.998 164.271C305.166 164.606 304.196 164.813 303.09 164.889ZM298.066 155.358L306.813 154.751L306.806 154.656C306.74 153.698 306.5 152.859 306.086 152.139C305.694 151.418 305.153 150.868 304.464 150.488C303.773 150.087 302.97 149.918 302.055 149.981C301.14 150.045 300.368 150.323 299.739 150.816C299.131 151.285 298.682 151.905 298.393 152.673C298.104 153.442 297.993 154.305 298.059 155.262L298.066 155.358ZM319.612 163.743C318.42 163.826 317.388 163.748 316.516 163.509C315.645 163.27 314.928 162.956 314.366 162.567C313.805 162.179 313.371 161.781 313.065 161.375C312.78 160.967 312.618 160.636 312.579 160.382C312.541 160.149 312.603 159.963 312.764 159.824C312.926 159.684 313.092 159.608 313.262 159.597L314.667 159.499C314.794 159.49 314.891 159.505 314.958 159.543C315.045 159.558 315.157 159.636 315.295 159.776C315.593 160.055 315.922 160.332 316.283 160.606C316.644 160.88 317.076 161.096 317.579 161.254C318.103 161.41 318.738 161.462 319.482 161.41C320.568 161.335 321.448 161.071 322.122 160.618C322.795 160.143 323.103 159.502 323.047 158.693C323.01 158.161 322.831 157.746 322.511 157.447C322.213 157.147 321.682 156.895 320.919 156.692C320.178 156.486 319.159 156.29 317.863 156.102C316.565 155.892 315.529 155.601 314.755 155.227C313.979 154.832 313.411 154.347 313.05 153.773C312.688 153.178 312.481 152.498 312.428 151.732C312.373 150.944 312.555 150.172 312.973 149.416C313.389 148.639 314.028 147.985 314.889 147.455C315.772 146.923 316.894 146.61 318.256 146.516C319.363 146.439 320.32 146.511 321.126 146.733C321.933 146.955 322.607 147.262 323.147 147.652C323.686 148.021 324.097 148.399 324.38 148.785C324.664 149.172 324.826 149.503 324.866 149.778C324.902 149.989 324.851 150.175 324.712 150.334C324.572 150.472 324.406 150.548 324.215 150.561L322.874 150.654C322.725 150.664 322.595 150.641 322.484 150.585C322.395 150.527 322.304 150.458 322.213 150.379C321.981 150.117 321.707 149.858 321.39 149.602C321.094 149.345 320.706 149.147 320.226 149.009C319.766 148.849 319.163 148.794 318.418 148.846C317.354 148.92 316.571 149.199 316.07 149.682C315.569 150.166 315.343 150.749 315.39 151.43C315.418 151.834 315.56 152.188 315.816 152.491C316.072 152.794 316.539 153.05 317.217 153.26C317.894 153.469 318.892 153.678 320.211 153.886C321.635 154.065 322.768 154.361 323.609 154.773C324.45 155.185 325.062 155.688 325.446 156.281C325.829 156.875 326.049 157.576 326.105 158.385C326.167 159.279 325.958 160.116 325.477 160.898C325.018 161.679 324.293 162.328 323.303 162.845C322.332 163.34 321.102 163.64 319.612 163.743ZM330.373 162.676C330.16 162.69 329.974 162.639 329.817 162.522C329.679 162.382 329.602 162.205 329.587 161.992L328.538 146.861C328.523 146.648 328.575 146.473 328.694 146.337C328.832 146.177 329.008 146.09 329.221 146.076L330.753 145.969C330.966 145.955 331.141 146.017 331.279 146.157C331.416 146.276 331.492 146.442 331.506 146.655L332.556 161.786C332.571 161.999 332.52 162.185 332.402 162.342C332.284 162.479 332.118 162.555 331.905 162.569L330.373 162.676ZM328.751 142.997C328.538 143.012 328.352 142.96 328.195 142.843C328.057 142.703 327.98 142.526 327.965 142.313L327.846 140.59C327.831 140.377 327.883 140.202 328.002 140.066C328.141 139.906 328.316 139.819 328.529 139.804L330.54 139.665C330.753 139.65 330.929 139.713 331.067 139.853C331.224 139.97 331.311 140.135 331.325 140.348L331.445 142.072C331.46 142.285 331.398 142.471 331.259 142.63C331.14 142.767 330.975 142.842 330.762 142.857L328.751 142.997ZM344.178 168.775C342.731 168.875 341.526 168.766 340.563 168.448C339.621 168.129 338.865 167.711 338.294 167.194C337.747 166.698 337.337 166.181 337.064 165.644C336.814 165.126 336.668 164.709 336.624 164.391C336.588 164.18 336.64 163.994 336.778 163.835C336.938 163.674 337.114 163.587 337.305 163.574L338.838 163.468C339.029 163.454 339.192 163.486 339.325 163.562C339.459 163.638 339.578 163.812 339.682 164.083C339.832 164.393 340.048 164.731 340.33 165.096C340.613 165.483 341.031 165.796 341.582 166.036C342.135 166.297 342.89 166.394 343.848 166.328C344.848 166.258 345.679 166.062 346.341 165.738C347.004 165.435 347.482 164.932 347.776 164.227C348.092 163.542 348.209 162.614 348.128 161.444L347.977 159.273C347.512 159.968 346.88 160.568 346.081 161.073C345.281 161.556 344.253 161.841 342.997 161.928C341.805 162.011 340.77 161.879 339.89 161.534C339.01 161.168 338.268 160.652 337.666 159.988C337.084 159.302 336.623 158.51 336.282 157.615C335.964 156.717 335.748 155.77 335.636 154.772C335.574 154.178 335.533 153.593 335.514 153.017C335.488 152.013 335.57 151.045 335.762 150.113C335.975 149.178 336.323 148.331 336.804 147.57C337.308 146.808 337.971 146.196 338.794 145.732C339.616 145.247 340.623 144.964 341.814 144.881C343.091 144.792 344.162 144.964 345.026 145.396C345.909 145.805 346.641 146.332 347.22 146.976L347.125 145.603C347.11 145.39 347.162 145.205 347.279 145.047C347.418 144.888 347.593 144.801 347.806 144.786L349.275 144.684C349.487 144.669 349.674 144.731 349.833 144.87C349.992 145.009 350.079 145.184 350.094 145.397L351.168 160.88C351.267 162.306 351.11 163.589 350.697 164.73C350.306 165.869 349.579 166.796 348.517 167.511C347.476 168.225 346.029 168.646 344.178 168.775ZM343.458 159.33C344.522 159.256 345.357 158.952 345.961 158.419C346.587 157.883 347.023 157.233 347.269 156.467C347.537 155.7 347.655 154.933 347.623 154.165C347.624 153.866 347.609 153.503 347.58 153.078C347.549 152.631 347.512 152.259 347.47 151.963C347.396 151.198 347.173 150.454 346.802 149.732C346.452 149.007 345.931 148.423 345.237 147.98C344.565 147.534 343.696 147.349 342.632 147.423C341.568 147.496 340.734 147.8 340.129 148.334C339.523 148.847 339.109 149.506 338.887 150.313C338.664 151.098 338.562 151.939 338.581 152.836C338.598 153.391 338.637 153.955 338.699 154.528C338.803 155.419 339.021 156.248 339.352 157.017C339.682 157.764 340.183 158.36 340.856 158.805C341.527 159.229 342.394 159.404 343.458 159.33ZM356.194 160.884C355.981 160.899 355.796 160.848 355.638 160.73C355.5 160.59 355.424 160.414 355.409 160.201L354.359 145.069C354.344 144.856 354.396 144.682 354.515 144.545C354.654 144.386 354.83 144.299 355.043 144.284L356.543 144.18C356.756 144.165 356.931 144.228 357.069 144.368C357.227 144.485 357.313 144.65 357.328 144.863L357.426 146.268C357.929 145.506 358.58 144.873 359.379 144.368C360.198 143.841 361.267 143.531 362.586 143.44C363.97 143.344 365.161 143.571 366.162 144.122C367.182 144.65 367.975 145.44 368.54 146.491C369.103 147.521 369.434 148.749 369.533 150.175L370.158 159.178C370.172 159.39 370.121 159.576 370.004 159.734C369.885 159.87 369.719 159.946 369.506 159.961L367.91 160.071C367.697 160.086 367.512 160.035 367.354 159.917C367.216 159.777 367.14 159.601 367.125 159.388L366.511 150.545C366.408 149.056 365.966 147.921 365.185 147.141C364.402 146.34 363.308 145.988 361.904 146.086C360.584 146.177 359.55 146.677 358.8 147.584C358.07 148.469 357.757 149.656 357.86 151.146L358.474 159.988C358.488 160.201 358.427 160.387 358.288 160.546C358.169 160.683 358.003 160.759 357.79 160.773L356.194 160.884Z" fill="white"/>
<path d="M402.824 129.582L408.364 141.527L420.96 145.364L409.015 150.904L405.178 163.5L399.637 151.555L387.042 147.718L398.987 142.177L402.824 129.582Z" fill="white" fill-opacity="0.2"/>
<path d="M440.197 155.056C439.963 155.072 439.777 155.021 439.641 154.902C439.503 154.762 439.426 154.586 439.412 154.373L437.965 133.527C437.949 133.293 438 133.107 438.119 132.971C438.237 132.813 438.412 132.726 438.646 132.71L445.893 132.207C448.085 132.055 449.874 132.262 451.261 132.829C452.648 133.396 453.694 134.307 454.402 135.562C455.107 136.796 455.536 138.349 455.687 140.22C455.775 141.176 455.844 142.016 455.894 142.74C455.944 143.464 455.991 144.294 456.035 145.232C456.128 147.193 455.911 148.844 455.384 150.185C454.877 151.503 453.986 152.528 452.71 153.258C451.455 153.965 449.753 154.393 447.603 154.542L440.197 155.056ZM442.403 152.176L447.255 151.84C448.724 151.738 449.88 151.454 450.725 150.99C451.569 150.525 452.152 149.832 452.473 148.912C452.815 147.99 452.946 146.794 452.866 145.324C452.864 144.682 452.847 144.128 452.814 143.659C452.78 143.17 452.747 142.691 452.715 142.223C452.681 141.733 452.621 141.181 452.536 140.567C452.35 138.506 451.755 137.018 450.75 136.104C449.745 135.169 448.135 134.778 445.922 134.931L441.229 135.257L442.403 152.176ZM465.229 153.64C464.165 153.714 463.182 153.568 462.28 153.203C461.378 152.838 460.636 152.312 460.054 151.625C459.471 150.939 459.148 150.138 459.085 149.223C458.983 147.754 459.498 146.542 460.629 145.587C461.76 144.632 463.274 143.949 465.17 143.54L469.88 142.539L469.816 141.614C469.745 140.592 469.392 139.815 468.756 139.281C468.142 138.747 467.175 138.525 465.855 138.617C464.897 138.683 464.134 138.929 463.565 139.353C463.017 139.776 462.646 140.293 462.453 140.906C462.348 141.234 462.135 141.409 461.816 141.431L460.38 141.531C460.146 141.547 459.96 141.496 459.824 141.377C459.707 141.235 459.642 141.069 459.629 140.877C459.606 140.558 459.696 140.156 459.898 139.672C460.121 139.186 460.472 138.701 460.952 138.219C461.432 137.737 462.055 137.319 462.822 136.967C463.608 136.591 464.576 136.364 465.725 136.284C467.002 136.195 468.089 136.291 468.985 136.571C469.88 136.83 470.591 137.219 471.119 137.738C471.668 138.256 472.073 138.859 472.335 139.546C472.618 140.232 472.784 140.937 472.835 141.661L473.552 152.004C473.567 152.217 473.505 152.403 473.366 152.562C473.247 152.699 473.082 152.774 472.869 152.789L471.4 152.891C471.166 152.907 470.981 152.856 470.844 152.737C470.706 152.597 470.63 152.421 470.615 152.208L470.52 150.835C470.27 151.237 469.924 151.646 469.482 152.062C469.039 152.456 468.475 152.805 467.791 153.109C467.105 153.392 466.251 153.569 465.229 153.64ZM465.734 151.199C466.606 151.139 467.392 150.902 468.09 150.49C468.787 150.057 469.311 149.433 469.66 148.617C470.031 147.8 470.176 146.796 470.093 145.604L470.031 144.71L466.365 145.51C464.869 145.828 463.756 146.268 463.025 146.832C462.293 147.375 461.953 148.029 462.006 148.795C462.048 149.391 462.253 149.88 462.621 150.26C463.01 150.618 463.476 150.875 464.022 151.029C464.588 151.182 465.159 151.239 465.734 151.199ZM483.482 152.374C482.29 152.456 481.258 152.378 480.386 152.139C479.514 151.9 478.797 151.587 478.236 151.198C477.674 150.809 477.24 150.412 476.934 150.005C476.649 149.597 476.487 149.266 476.448 149.012C476.411 148.78 476.473 148.594 476.634 148.454C476.795 148.315 476.961 148.239 477.132 148.227L478.536 148.13C478.664 148.121 478.761 148.136 478.828 148.174C478.915 148.189 479.027 148.267 479.165 148.407C479.462 148.686 479.791 148.962 480.153 149.237C480.514 149.511 480.946 149.727 481.449 149.884C481.973 150.04 482.607 150.093 483.352 150.041C484.437 149.966 485.317 149.702 485.991 149.248C486.664 148.774 486.973 148.133 486.916 147.324C486.88 146.792 486.701 146.376 486.381 146.078C486.082 145.778 485.551 145.526 484.789 145.322C484.048 145.117 483.029 144.92 481.733 144.732C480.435 144.523 479.399 144.231 478.625 143.857C477.849 143.462 477.281 142.978 476.92 142.404C476.558 141.809 476.35 141.128 476.297 140.362C476.243 139.575 476.424 138.803 476.842 138.047C477.259 137.269 477.898 136.616 478.759 136.085C479.642 135.554 480.764 135.241 482.126 135.146C483.233 135.069 484.189 135.142 484.996 135.364C485.803 135.586 486.476 135.892 487.017 136.282C487.555 136.651 487.966 137.029 488.25 137.416C488.533 137.802 488.695 138.133 488.736 138.408C488.772 138.62 488.721 138.805 488.582 138.964C488.442 139.102 488.276 139.178 488.084 139.191L486.744 139.284C486.595 139.295 486.465 139.272 486.354 139.215C486.264 139.157 486.174 139.089 486.083 139.01C485.851 138.748 485.576 138.489 485.259 138.233C484.963 137.975 484.575 137.778 484.095 137.64C483.635 137.479 483.033 137.425 482.288 137.477C481.224 137.55 480.441 137.829 479.94 138.313C479.439 138.797 479.212 139.379 479.259 140.06C479.287 140.465 479.43 140.818 479.686 141.121C479.942 141.424 480.409 141.681 481.086 141.89C481.764 142.1 482.762 142.309 484.081 142.517C485.505 142.696 486.637 142.991 487.478 143.403C488.32 143.816 488.932 144.318 489.315 144.912C489.699 145.506 489.918 146.207 489.974 147.015C490.036 147.909 489.827 148.747 489.347 149.529C488.888 150.309 488.163 150.958 487.173 151.476C486.202 151.971 484.972 152.27 483.482 152.374ZM494.274 151.304C494.061 151.319 493.876 151.268 493.718 151.15C493.58 151.01 493.504 150.834 493.489 150.621L492.018 129.424C492.004 129.211 492.056 129.036 492.174 128.9C492.313 128.74 492.489 128.653 492.702 128.639L494.298 128.528C494.532 128.512 494.718 128.574 494.856 128.714C494.992 128.832 495.068 128.998 495.083 129.211L495.599 136.649C496.123 135.886 496.785 135.252 497.584 134.747C498.383 134.243 499.421 133.946 500.698 133.858C502.081 133.762 503.273 133.989 504.274 134.54C505.294 135.068 506.087 135.857 506.651 136.909C507.236 137.938 507.578 139.165 507.677 140.591L508.301 149.593C508.316 149.806 508.265 149.991 508.147 150.149C508.029 150.286 507.852 150.362 507.618 150.378L506.022 150.489C505.809 150.504 505.624 150.452 505.466 150.335C505.328 150.195 505.251 150.019 505.237 149.806L504.623 140.963C504.52 139.473 504.078 138.338 503.296 137.559C502.514 136.758 501.42 136.406 500.015 136.503C498.696 136.595 497.661 137.094 496.912 138.002C496.161 138.888 495.837 140.076 495.94 141.565L496.554 150.408C496.568 150.621 496.517 150.806 496.4 150.964C496.281 151.101 496.104 151.177 495.87 151.193L494.274 151.304ZM520.709 149.791C519.432 149.879 518.352 149.73 517.47 149.342C516.586 148.933 515.865 148.405 515.307 147.76L515.4 149.101C515.415 149.313 515.353 149.499 515.214 149.659C515.096 149.795 514.93 149.871 514.717 149.886L513.249 149.988C513.036 150.002 512.85 149.951 512.693 149.834C512.555 149.694 512.478 149.517 512.463 149.304L510.993 128.107C510.978 127.894 511.03 127.72 511.149 127.583C511.287 127.424 511.463 127.337 511.676 127.322L513.208 127.216C513.442 127.2 513.628 127.261 513.766 127.402C513.903 127.52 513.979 127.686 513.993 127.899L514.503 135.241C514.989 134.545 515.632 133.944 516.431 133.44C517.251 132.934 518.278 132.638 519.513 132.552C520.705 132.47 521.73 132.612 522.59 132.98C523.469 133.326 524.2 133.842 524.782 134.528C525.386 135.213 525.858 136.004 526.198 136.9C526.538 137.796 526.753 138.743 526.844 139.742C526.889 140.081 526.922 140.4 526.942 140.698C526.963 140.995 526.975 141.315 526.977 141.657C527.026 142.68 526.945 143.659 526.731 144.593C526.518 145.528 526.16 146.376 525.657 147.138C525.174 147.877 524.521 148.489 523.699 148.974C522.897 149.436 521.901 149.708 520.709 149.791ZM519.859 147.252C520.966 147.175 521.811 146.881 522.396 146.37C523.001 145.836 523.415 145.176 523.638 144.391C523.86 143.584 523.961 142.733 523.942 141.836C523.92 141.217 523.878 140.6 523.813 139.984C523.709 139.093 523.492 138.275 523.162 137.528C522.831 136.759 522.329 136.163 521.659 135.739C521.007 135.293 520.128 135.108 519.022 135.185C518.022 135.254 517.208 135.546 516.58 136.06C515.953 136.574 515.494 137.204 515.204 137.951C514.935 138.697 514.816 139.443 514.846 140.19C514.849 140.532 514.867 140.947 514.901 141.437C514.933 141.905 514.972 142.309 515.017 142.648C515.114 143.432 515.338 144.197 515.689 144.943C516.06 145.665 516.582 146.249 517.254 146.694C517.948 147.138 518.816 147.324 519.859 147.252ZM537.811 148.604C536.193 148.716 534.821 148.502 533.692 147.96C532.564 147.418 531.675 146.624 531.025 145.579C530.374 144.512 529.967 143.278 529.806 141.878C529.76 141.518 529.717 141.061 529.679 140.508C529.639 139.933 529.618 139.475 529.616 139.133C529.581 137.702 529.813 136.425 530.312 135.299C530.833 134.173 531.614 133.263 532.657 132.571C533.699 131.878 535.019 131.476 536.615 131.366C538.211 131.255 539.573 131.47 540.701 132.012C541.83 132.554 542.719 133.348 543.369 134.393C544.04 135.438 544.457 136.67 544.62 138.092C544.665 138.431 544.707 138.888 544.747 139.462C544.785 140.016 544.806 140.474 544.81 140.837C544.844 142.246 544.612 143.524 544.114 144.671C543.614 145.796 542.844 146.705 541.801 147.397C540.758 148.09 539.428 148.492 537.811 148.604ZM537.64 146.146C538.96 146.055 539.985 145.566 540.714 144.682C541.443 143.776 541.783 142.512 541.734 140.89C541.734 140.569 541.716 140.164 541.682 139.675C541.648 139.185 541.61 138.782 541.566 138.464C541.39 136.851 540.879 135.657 540.034 134.881C539.188 134.085 538.105 133.732 536.785 133.824C535.466 133.915 534.431 134.415 533.682 135.322C532.952 136.207 532.622 137.459 532.691 139.08C532.692 139.4 532.71 139.806 532.744 140.295C532.778 140.785 532.816 141.188 532.86 141.506C533.015 143.12 533.515 144.326 534.362 145.123C535.228 145.897 536.321 146.238 537.64 146.146ZM553.492 147.516C552.428 147.59 551.445 147.444 550.543 147.079C549.641 146.714 548.899 146.188 548.316 145.502C547.734 144.815 547.411 144.014 547.348 143.099C547.246 141.63 547.761 140.419 548.892 139.463C550.023 138.508 551.537 137.826 553.433 137.416L558.143 136.416L558.079 135.49C558.008 134.468 557.655 133.691 557.019 133.158C556.404 132.623 555.437 132.401 554.118 132.493C553.16 132.559 552.397 132.805 551.827 133.229C551.279 133.652 550.909 134.17 550.716 134.782C550.611 135.11 550.398 135.285 550.079 135.307L548.642 135.407C548.408 135.423 548.223 135.372 548.086 135.253C547.97 135.111 547.905 134.945 547.891 134.753C547.869 134.434 547.959 134.032 548.161 133.548C548.384 133.062 548.735 132.578 549.215 132.095C549.694 131.613 550.318 131.195 551.084 130.843C551.871 130.468 552.839 130.24 553.988 130.16C555.265 130.072 556.352 130.167 557.248 130.447C558.143 130.706 558.854 131.095 559.382 131.614C559.931 132.132 560.336 132.735 560.598 133.423C560.881 134.109 561.047 134.814 561.097 135.537L561.815 145.88C561.83 146.093 561.768 146.279 561.629 146.438C561.51 146.575 561.344 146.651 561.132 146.665L559.663 146.767C559.429 146.784 559.244 146.732 559.107 146.613C558.969 146.473 558.893 146.297 558.878 146.084L558.783 144.711C558.533 145.114 558.187 145.523 557.745 145.938C557.302 146.332 556.738 146.682 556.054 146.986C555.368 147.269 554.514 147.445 553.492 147.516ZM553.997 145.075C554.869 145.015 555.655 144.779 556.353 144.367C557.05 143.933 557.573 143.309 557.923 142.494C558.294 141.677 558.438 140.672 558.356 139.48L558.294 138.586L554.628 139.386C553.132 139.704 552.018 140.145 551.288 140.708C550.556 141.251 550.216 141.906 550.269 142.672C550.311 143.268 550.515 143.756 550.884 144.137C551.272 144.495 551.739 144.751 552.285 144.906C552.851 145.059 553.422 145.115 553.997 145.075ZM566.71 146.278C566.498 146.293 566.312 146.242 566.155 146.124C566.016 145.984 565.94 145.808 565.925 145.595L564.878 130.495C564.863 130.283 564.914 130.097 565.032 129.939C565.17 129.78 565.346 129.693 565.559 129.678L567.027 129.576C567.24 129.562 567.426 129.624 567.585 129.762C567.745 129.901 567.832 130.077 567.847 130.289L567.944 131.694C568.319 130.941 568.867 130.358 569.587 129.944C570.307 129.531 571.188 129.288 572.231 129.215L573.508 129.127C573.72 129.112 573.896 129.175 574.034 129.315C574.17 129.434 574.246 129.599 574.261 129.812L574.352 131.121C574.366 131.334 574.314 131.509 574.196 131.645C574.077 131.782 573.911 131.857 573.698 131.872L571.783 132.005C570.634 132.085 569.753 132.488 569.14 133.215C568.526 133.92 568.259 134.848 568.339 135.997L568.99 145.382C569.005 145.595 568.943 145.781 568.804 145.941C568.664 146.079 568.488 146.155 568.275 146.17L566.71 146.278ZM583.369 145.443C582.199 145.525 581.174 145.393 580.294 145.047C579.414 144.681 578.672 144.165 578.07 143.501C577.488 142.815 577.027 142.023 576.686 141.128C576.368 140.23 576.151 139.272 576.038 138.254C575.993 137.915 575.96 137.596 575.94 137.298C575.919 137 575.907 136.68 575.905 136.338C575.878 135.335 575.961 134.367 576.153 133.434C576.366 132.5 576.713 131.652 577.195 130.892C577.698 130.13 578.361 129.517 579.185 129.054C580.006 128.569 581.003 128.286 582.173 128.205C583.429 128.118 584.487 128.269 585.348 128.658C586.209 129.047 586.929 129.554 587.506 130.176L586.997 122.834C586.982 122.621 587.034 122.447 587.153 122.31C587.292 122.151 587.467 122.064 587.68 122.049L589.213 121.943C589.425 121.928 589.601 121.99 589.739 122.131C589.897 122.248 589.983 122.413 589.998 122.626L591.468 143.823C591.483 144.036 591.421 144.222 591.283 144.381C591.164 144.518 590.998 144.593 590.785 144.608L589.349 144.708C589.114 144.724 588.929 144.673 588.793 144.554C588.655 144.414 588.578 144.237 588.563 144.024L588.47 142.684C587.986 143.402 587.334 144.024 586.515 144.551C585.695 145.057 584.646 145.355 583.369 145.443ZM583.86 142.811C584.924 142.737 585.759 142.433 586.363 141.9C586.968 141.366 587.404 140.715 587.671 139.948C587.937 139.16 588.054 138.372 588.02 137.583C588.018 137.241 588 136.835 587.968 136.367C587.934 135.878 587.895 135.464 587.85 135.124C587.777 134.381 587.545 133.659 587.154 132.959C586.785 132.258 586.254 131.696 585.562 131.274C584.891 130.85 584.044 130.673 583.023 130.744C581.938 130.819 581.093 131.124 580.488 131.658C579.882 132.17 579.468 132.83 579.246 133.636C579.023 134.422 578.921 135.263 578.94 136.16C578.962 136.778 579.004 137.395 579.068 138.011C579.173 138.902 579.391 139.732 579.722 140.5C580.052 141.247 580.553 141.843 581.226 142.288C581.897 142.712 582.775 142.886 583.86 142.811Z" fill="white"/>
<path d="M624.292 114.216L629.832 126.161L642.428 129.999L630.483 135.539L626.645 148.135L621.105 136.189L608.509 132.352L620.454 126.812L624.292 114.216Z" fill="white" fill-opacity="0.2"/>
<path d="M664.697 139.48C664.421 139.499 664.192 139.44 664.011 139.303C663.852 139.164 663.731 138.959 663.648 138.687L658.108 118.478C658.081 118.394 658.065 118.32 658.06 118.256C658.056 118.193 658.053 118.15 658.052 118.129C658.04 117.959 658.093 117.805 658.212 117.669C658.331 117.532 658.476 117.458 658.646 117.446L660.306 117.331C660.753 117.3 661.021 117.463 661.11 117.82L665.509 134.067L668.172 122.527C668.223 122.331 668.317 122.153 668.456 121.994C668.615 121.812 668.843 121.71 669.141 121.69L670.322 121.608C670.641 121.586 670.881 121.655 671.042 121.814C671.201 121.953 671.309 122.117 671.365 122.305L675.628 133.365L677.71 116.669C677.748 116.302 678.002 116.103 678.47 116.071L680.13 115.955C680.3 115.944 680.454 115.997 680.59 116.116C680.727 116.235 680.801 116.379 680.813 116.55C680.814 116.571 680.807 116.614 680.79 116.679C680.794 116.743 680.799 116.818 680.805 116.903L678.109 137.683C678.065 137.964 677.962 138.185 677.802 138.346C677.664 138.506 677.456 138.595 677.179 138.614L675.934 138.7C675.636 138.721 675.397 138.663 675.217 138.526C675.036 138.388 674.906 138.205 674.826 137.975L670.023 126.087L666.94 138.522C666.872 138.762 666.757 138.963 666.597 139.124C666.459 139.283 666.24 139.373 665.942 139.394L664.697 139.48ZM686.334 137.979C686.122 137.994 685.936 137.942 685.778 137.825C685.64 137.685 685.564 137.508 685.549 137.296L684.499 122.164C684.485 121.951 684.537 121.776 684.655 121.64C684.794 121.481 684.97 121.393 685.183 121.379L686.715 121.272C686.928 121.258 687.103 121.32 687.241 121.46C687.378 121.579 687.453 121.745 687.468 121.958L688.518 137.09C688.533 137.302 688.482 137.488 688.364 137.646C688.245 137.782 688.079 137.858 687.867 137.872L686.334 137.979ZM684.712 118.3C684.5 118.315 684.314 118.263 684.156 118.146C684.018 118.006 683.942 117.829 683.927 117.617L683.808 115.893C683.793 115.68 683.845 115.505 683.964 115.369C684.102 115.209 684.278 115.122 684.491 115.108L686.502 114.968C686.715 114.953 686.89 115.016 687.028 115.156C687.186 115.273 687.272 115.438 687.287 115.651L687.407 117.375C687.422 117.588 687.36 117.774 687.221 117.933C687.102 118.07 686.936 118.146 686.724 118.16L684.712 118.3ZM693.899 137.454C693.686 137.469 693.501 137.417 693.343 137.3C693.205 137.16 693.128 136.984 693.113 136.771L692.066 121.671C692.051 121.458 692.102 121.273 692.22 121.115C692.358 120.956 692.534 120.869 692.747 120.854L694.215 120.752C694.428 120.737 694.614 120.799 694.774 120.938C694.933 121.076 695.02 121.252 695.035 121.465L695.132 122.87C695.508 122.116 696.055 121.533 696.775 121.12C697.495 120.706 698.376 120.463 699.419 120.391L700.696 120.302C700.909 120.288 701.084 120.35 701.222 120.49C701.359 120.609 701.434 120.775 701.449 120.988L701.54 122.297C701.555 122.51 701.503 122.684 701.384 122.821C701.265 122.957 701.099 123.033 700.886 123.048L698.971 123.181C697.822 123.26 696.941 123.664 696.328 124.39C695.714 125.096 695.447 126.023 695.527 127.173L696.178 136.558C696.193 136.771 696.131 136.957 695.992 137.116C695.852 137.254 695.676 137.331 695.463 137.345L693.899 137.454ZM711.131 136.579C708.939 136.731 707.147 136.182 705.756 134.931C704.364 133.659 703.522 131.857 703.232 129.525C703.192 129.25 703.157 128.899 703.127 128.474C703.096 128.027 703.082 127.664 703.084 127.386C703.064 125.869 703.323 124.525 703.862 123.355C704.4 122.162 705.179 121.221 706.201 120.53C707.243 119.837 708.488 119.441 709.935 119.341C711.553 119.228 712.928 119.475 714.06 120.081C715.214 120.685 716.122 121.595 716.784 122.811C717.446 124.027 717.835 125.475 717.951 127.156L717.989 127.699C718.005 127.933 717.943 128.119 717.803 128.257C717.684 128.394 717.519 128.47 717.306 128.484L706.26 129.251C706.262 129.272 706.265 129.315 706.269 129.378C706.274 129.442 706.277 129.495 706.28 129.538C706.383 130.408 706.632 131.214 707.025 131.956C707.418 132.677 707.949 133.25 708.62 133.674C709.291 134.098 710.073 134.279 710.967 134.217C711.733 134.164 712.364 134.002 712.858 133.733C713.353 133.463 713.75 133.179 714.05 132.88C714.349 132.56 714.546 132.322 714.642 132.166C714.814 131.876 714.952 131.706 715.056 131.656C715.158 131.584 715.326 131.541 715.56 131.524L717.092 131.418C717.305 131.403 717.48 131.455 717.616 131.574C717.773 131.67 717.848 131.826 717.841 132.04C717.842 132.361 717.699 132.766 717.412 133.256C717.124 133.726 716.697 134.204 716.133 134.692C715.568 135.181 714.87 135.603 714.039 135.96C713.207 136.296 712.238 136.502 711.131 136.579ZM706.107 127.048L714.854 126.441L714.848 126.345C714.781 125.388 714.541 124.549 714.128 123.829C713.736 123.108 713.195 122.557 712.506 122.177C711.815 121.776 711.012 121.607 710.097 121.671C709.182 121.734 708.41 122.013 707.781 122.505C707.172 122.975 706.723 123.594 706.434 124.363C706.146 125.131 706.034 125.995 706.101 126.952L706.107 127.048ZM724.124 135.357C723.911 135.372 723.726 135.32 723.568 135.203C723.43 135.063 723.353 134.886 723.339 134.674L722.415 121.362L719.702 121.55C719.489 121.565 719.303 121.513 719.146 121.396C719.007 121.256 718.931 121.079 718.916 120.867L718.841 119.781C718.826 119.568 718.878 119.394 718.997 119.257C719.136 119.098 719.311 119.011 719.524 118.996L722.238 118.808L722.127 117.212C722.052 116.126 722.167 115.167 722.473 114.333C722.777 113.478 723.307 112.799 724.064 112.298C724.841 111.795 725.901 111.497 727.241 111.404L729.157 111.271C729.37 111.256 729.545 111.319 729.683 111.459C729.82 111.578 729.895 111.744 729.91 111.956L729.985 113.042C730 113.255 729.949 113.44 729.831 113.598C729.713 113.734 729.547 113.81 729.334 113.825L727.482 113.953C726.482 114.023 725.82 114.336 725.495 114.893C725.168 115.429 725.039 116.186 725.107 117.165L725.207 118.602L729.325 118.316C729.538 118.301 729.713 118.364 729.851 118.504C729.988 118.623 730.063 118.789 730.078 119.002L730.153 120.087C730.168 120.3 730.117 120.485 729.999 120.643C729.881 120.78 729.715 120.855 729.502 120.87L725.384 121.156L726.307 134.468C726.322 134.68 726.26 134.867 726.122 135.026C726.003 135.162 725.837 135.238 725.624 135.253L724.124 135.357ZM734.268 134.653C734.055 134.668 733.87 134.617 733.712 134.499C733.574 134.359 733.497 134.183 733.483 133.97L732.435 118.87C732.42 118.657 732.472 118.472 732.589 118.314C732.728 118.155 732.903 118.068 733.116 118.053L734.585 117.951C734.797 117.936 734.983 117.998 735.143 118.137C735.302 118.276 735.389 118.451 735.404 118.664L735.501 120.069C735.877 119.316 736.424 118.732 737.144 118.319C737.864 117.905 738.745 117.662 739.788 117.59L741.065 117.502C741.278 117.487 741.453 117.549 741.591 117.69C741.728 117.808 741.804 117.974 741.818 118.187L741.909 119.496C741.924 119.709 741.872 119.883 741.753 120.02C741.634 120.157 741.468 120.232 741.256 120.247L739.34 120.38C738.191 120.46 737.31 120.863 736.698 121.59C736.084 122.295 735.816 123.223 735.896 124.372L736.547 133.757C736.562 133.97 736.5 134.156 736.362 134.315C736.221 134.453 736.045 134.53 735.832 134.545L734.268 134.653ZM749.584 133.911C748.519 133.985 747.536 133.839 746.634 133.474C745.732 133.109 744.99 132.583 744.408 131.897C743.825 131.21 743.503 130.409 743.439 129.494C743.337 128.026 743.852 126.814 744.983 125.858C746.114 124.903 747.628 124.221 749.524 123.811L754.234 122.811L754.17 121.885C754.099 120.863 753.746 120.086 753.11 119.553C752.496 119.018 751.529 118.796 750.209 118.888C749.251 118.954 748.488 119.2 747.919 119.624C747.371 120.047 747 120.565 746.807 121.177C746.702 121.505 746.49 121.68 746.17 121.702L744.734 121.802C744.5 121.818 744.314 121.767 744.178 121.648C744.061 121.506 743.996 121.34 743.983 121.148C743.961 120.829 744.05 120.427 744.252 119.943C744.475 119.457 744.826 118.973 745.306 118.49C745.786 118.008 746.409 117.591 747.176 117.238C747.962 116.863 748.93 116.635 750.079 116.555C751.356 116.467 752.443 116.562 753.339 116.842C754.234 117.101 754.945 117.49 755.473 118.01C756.022 118.527 756.428 119.13 756.689 119.818C756.972 120.504 757.138 121.209 757.189 121.932L757.906 132.275C757.921 132.488 757.859 132.674 757.72 132.834C757.602 132.97 757.436 133.046 757.223 133.06L755.754 133.162C755.52 133.179 755.335 133.127 755.198 133.008C755.06 132.868 754.984 132.692 754.969 132.479L754.874 131.106C754.624 131.509 754.278 131.918 753.836 132.333C753.393 132.727 752.83 133.077 752.145 133.381C751.459 133.664 750.605 133.84 749.584 133.911ZM750.088 131.471C750.96 131.41 751.746 131.174 752.444 130.762C753.141 130.328 753.665 129.704 754.014 128.889C754.385 128.072 754.53 127.067 754.447 125.875L754.385 124.982L750.72 125.781C749.223 126.099 748.11 126.54 747.379 127.104C746.647 127.646 746.307 128.301 746.36 129.067C746.402 129.663 746.607 130.151 746.975 130.532C747.364 130.89 747.831 131.146 748.376 131.301C748.943 131.454 749.513 131.51 750.088 131.471ZM762.802 132.673C762.589 132.688 762.404 132.637 762.246 132.52C762.108 132.379 762.031 132.203 762.017 131.99L760.967 116.859C760.952 116.646 761.004 116.471 761.123 116.334C761.261 116.175 761.437 116.088 761.65 116.073L763.087 115.974C763.299 115.959 763.475 116.022 763.613 116.162C763.771 116.279 763.857 116.444 763.872 116.657L763.949 117.774C764.393 117.081 764.974 116.516 765.692 116.082C766.409 115.626 767.289 115.361 768.332 115.289C770.735 115.101 772.506 115.962 773.643 117.872C774.071 116.944 774.734 116.181 775.634 115.584C776.533 114.987 777.579 114.647 778.771 114.565C779.877 114.488 780.895 114.674 781.825 115.123C782.775 115.57 783.542 116.297 784.125 117.305C784.728 118.289 785.083 119.558 785.191 121.112L785.831 130.338C785.846 130.551 785.784 130.737 785.646 130.896C785.527 131.033 785.361 131.108 785.148 131.123L783.648 131.227C783.435 131.242 783.25 131.191 783.092 131.073C782.954 130.933 782.877 130.757 782.862 130.544L782.242 121.605C782.16 120.414 781.924 119.489 781.537 118.832C781.149 118.174 780.658 117.727 780.064 117.49C779.47 117.253 778.833 117.159 778.152 117.206C777.599 117.244 777.044 117.422 776.489 117.738C775.933 118.055 775.488 118.567 775.152 119.274C774.837 119.981 774.722 120.93 774.804 122.121L775.424 131.06C775.439 131.273 775.377 131.459 775.239 131.618C775.12 131.755 774.954 131.83 774.741 131.845L773.241 131.949C773.028 131.964 772.843 131.913 772.685 131.795C772.547 131.655 772.47 131.479 772.456 131.266L771.835 122.327C771.753 121.136 771.507 120.212 771.098 119.556C770.689 118.9 770.187 118.453 769.593 118.217C769 117.98 768.383 117.884 767.745 117.928C767.192 117.966 766.637 118.144 766.082 118.46C765.526 118.777 765.081 119.289 764.745 119.997C764.43 120.703 764.314 121.641 764.395 122.811L765.017 131.782C765.032 131.995 764.97 132.181 764.832 132.34C764.713 132.477 764.547 132.552 764.334 132.567L762.802 132.673ZM796.588 130.65C794.396 130.802 792.605 130.253 791.213 129.002C789.821 127.73 788.979 125.928 788.689 123.596C788.649 123.321 788.614 122.97 788.584 122.545C788.553 122.098 788.539 121.735 788.541 121.457C788.521 119.94 788.781 118.596 789.319 117.425C789.857 116.233 790.636 115.292 791.658 114.601C792.7 113.908 793.945 113.512 795.392 113.411C797.01 113.299 798.385 113.546 799.517 114.152C800.671 114.756 801.579 115.666 802.241 116.882C802.903 118.098 803.292 119.546 803.408 121.227L803.446 121.77C803.462 122.004 803.4 122.19 803.26 122.328C803.141 122.465 802.976 122.541 802.763 122.555L791.717 123.322C791.719 123.343 791.722 123.385 791.726 123.449C791.731 123.513 791.734 123.566 791.737 123.609C791.84 124.479 792.089 125.285 792.482 126.027C792.875 126.748 793.406 127.321 794.077 127.745C794.748 128.169 795.531 128.35 796.424 128.288C797.191 128.235 797.821 128.073 798.315 127.804C798.81 127.534 799.207 127.25 799.507 126.951C799.806 126.631 800.003 126.393 800.099 126.236C800.272 125.947 800.409 125.777 800.513 125.727C800.615 125.655 800.783 125.612 801.017 125.595L802.549 125.489C802.762 125.474 802.937 125.526 803.073 125.645C803.23 125.741 803.305 125.896 803.298 126.111C803.299 126.431 803.156 126.837 802.869 127.327C802.581 127.796 802.155 128.275 801.59 128.763C801.025 129.252 800.327 129.674 799.496 130.031C798.664 130.367 797.695 130.573 796.588 130.65ZM791.565 121.119L800.311 120.512L800.305 120.416C800.238 119.459 799.998 118.62 799.585 117.9C799.193 117.179 798.652 116.628 797.963 116.248C797.272 115.847 796.469 115.678 795.554 115.742C794.639 115.805 793.867 116.083 793.238 116.576C792.629 117.046 792.18 117.665 791.891 118.434C791.603 119.202 791.491 120.065 791.558 121.023L791.565 121.119Z" fill="white"/>
<path d="M835.783 99.5426L841.324 111.488L853.919 115.325L841.974 120.865L838.137 133.461L832.597 121.516L820.001 117.678L831.946 112.138L835.783 99.5426Z" fill="white" fill-opacity="0.2"/>
<path d="M880.872 124.802C879.084 124.926 877.519 124.714 876.176 124.166C874.855 123.616 873.798 122.716 873.006 121.467C872.233 120.195 871.776 118.526 871.632 116.462L870.733 103.501C870.717 103.267 870.768 103.082 870.887 102.945C871.004 102.787 871.18 102.7 871.414 102.684L873.042 102.571C873.276 102.555 873.462 102.617 873.6 102.757C873.758 102.874 873.845 103.05 873.862 103.284L874.765 116.309C874.91 118.394 875.506 119.903 876.555 120.836C877.603 121.768 878.979 122.175 880.681 122.057C882.363 121.94 883.658 121.348 884.568 120.28C885.498 119.21 885.892 117.632 885.747 115.547L884.843 102.522C884.827 102.288 884.878 102.103 884.997 101.966C885.136 101.807 885.311 101.72 885.524 101.705L887.184 101.59C887.397 101.575 887.573 101.638 887.711 101.778C887.868 101.895 887.955 102.071 887.972 102.305L888.871 115.266C889.014 117.33 888.78 119.047 888.17 120.415C887.579 121.76 886.667 122.796 885.434 123.524C884.202 124.251 882.681 124.677 880.872 124.802ZM899.555 123.506C898.364 123.589 897.332 123.511 896.46 123.272C895.588 123.033 894.871 122.719 894.309 122.33C893.748 121.942 893.314 121.544 893.008 121.138C892.723 120.73 892.561 120.399 892.522 120.145C892.484 119.912 892.546 119.726 892.708 119.587C892.869 119.447 893.035 119.372 893.205 119.36L894.61 119.262C894.737 119.253 894.835 119.268 894.901 119.306C894.988 119.322 895.1 119.399 895.238 119.539C895.536 119.818 895.865 120.095 896.226 120.369C896.587 120.643 897.019 120.859 897.522 121.017C898.046 121.173 898.681 121.225 899.426 121.173C900.511 121.098 901.391 120.834 902.065 120.381C902.738 119.907 903.046 119.265 902.99 118.456C902.953 117.924 902.775 117.509 902.455 117.21C902.156 116.91 901.625 116.658 900.862 116.455C900.121 116.25 899.102 116.053 897.806 115.865C896.509 115.655 895.473 115.364 894.698 114.99C893.922 114.595 893.354 114.11 892.994 113.536C892.632 112.941 892.424 112.261 892.371 111.495C892.316 110.707 892.498 109.935 892.916 109.179C893.332 108.402 893.971 107.748 894.833 107.218C895.715 106.686 896.838 106.373 898.2 106.279C899.306 106.202 900.263 106.274 901.07 106.497C901.876 106.719 902.55 107.025 903.09 107.415C903.629 107.784 904.04 108.162 904.323 108.548C904.607 108.935 904.769 109.266 904.809 109.541C904.845 109.752 904.794 109.938 904.655 110.097C904.515 110.235 904.35 110.311 904.158 110.324L902.817 110.417C902.668 110.427 902.538 110.404 902.427 110.348C902.338 110.29 902.248 110.221 902.157 110.142C901.925 109.88 901.65 109.621 901.333 109.365C901.037 109.108 900.649 108.91 900.169 108.772C899.709 108.612 899.106 108.557 898.361 108.609C897.297 108.683 896.515 108.962 896.014 109.446C895.513 109.929 895.286 110.512 895.333 111.193C895.361 111.597 895.503 111.951 895.759 112.254C896.016 112.557 896.483 112.813 897.16 113.023C897.837 113.232 898.836 113.441 900.155 113.649C901.578 113.828 902.711 114.124 903.552 114.536C904.393 114.948 905.006 115.451 905.389 116.044C905.772 116.638 905.992 117.339 906.048 118.148C906.11 119.042 905.901 119.88 905.421 120.661C904.961 121.442 904.237 122.091 903.246 122.609C902.275 123.104 901.045 123.403 899.555 123.506ZM916.212 122.35C914.02 122.503 912.228 121.953 910.837 120.703C909.444 119.431 908.603 117.628 908.313 115.296C908.272 115.021 908.237 114.671 908.208 114.245C908.177 113.798 908.162 113.436 908.164 113.157C908.145 111.64 908.404 110.297 908.943 109.126C909.48 107.934 910.26 106.992 911.281 106.301C912.324 105.609 913.569 105.212 915.016 105.112C916.633 105 918.008 105.246 919.141 105.852C920.295 106.456 921.203 107.366 921.864 108.582C922.526 109.798 922.915 111.247 923.032 112.928L923.07 113.471C923.086 113.705 923.024 113.891 922.884 114.029C922.765 114.165 922.599 114.241 922.386 114.256L911.341 115.022C911.342 115.043 911.345 115.086 911.35 115.15C911.354 115.214 911.358 115.267 911.361 115.309C911.464 116.179 911.712 116.985 912.106 117.728C912.498 118.449 913.03 119.021 913.701 119.445C914.372 119.869 915.154 120.05 916.048 119.988C916.814 119.935 917.444 119.774 917.939 119.504C918.433 119.235 918.831 118.95 919.131 118.652C919.429 118.331 919.627 118.093 919.723 117.937C919.895 117.647 920.033 117.477 920.136 117.427C920.238 117.356 920.406 117.312 920.641 117.296L922.173 117.189C922.386 117.175 922.56 117.227 922.697 117.346C922.853 117.442 922.928 117.597 922.922 117.811C922.923 118.132 922.78 118.537 922.493 119.028C922.205 119.497 921.778 119.976 921.213 120.464C920.648 120.952 919.951 121.375 919.12 121.732C918.288 122.067 917.318 122.274 916.212 122.35ZM911.188 112.819L919.935 112.212L919.928 112.117C919.862 111.159 919.622 110.32 919.209 109.6C918.816 108.879 918.276 108.329 917.586 107.949C916.896 107.548 916.093 107.379 915.177 107.442C914.262 107.506 913.49 107.784 912.862 108.277C912.253 108.747 911.804 109.366 911.515 110.134C911.226 110.903 911.115 111.766 911.181 112.724L911.188 112.819ZM927.7 121.233C927.487 121.247 927.302 121.196 927.144 121.079C927.006 120.939 926.93 120.762 926.915 120.549L925.867 105.45C925.853 105.237 925.904 105.051 926.021 104.894C926.16 104.734 926.336 104.647 926.549 104.633L928.017 104.531C928.23 104.516 928.416 104.578 928.575 104.716C928.734 104.855 928.822 105.031 928.836 105.244L928.934 106.648C929.309 105.895 929.857 105.312 930.577 104.898C931.296 104.485 932.178 104.242 933.22 104.17L934.497 104.081C934.71 104.066 934.886 104.129 935.024 104.269C935.16 104.388 935.236 104.554 935.251 104.767L935.341 106.075C935.356 106.288 935.304 106.463 935.185 106.599C935.067 106.736 934.901 106.812 934.688 106.826L932.772 106.959C931.623 107.039 930.742 107.442 930.13 108.169C929.516 108.875 929.249 109.802 929.329 110.951L929.98 120.337C929.994 120.55 929.933 120.736 929.794 120.895C929.654 121.033 929.477 121.109 929.264 121.124L927.7 121.233ZM946.361 119.938C946.127 119.954 945.942 119.903 945.805 119.784C945.667 119.644 945.591 119.467 945.576 119.255L944.13 98.4087C944.114 98.1746 944.165 97.9893 944.284 97.8527C944.401 97.6949 944.577 97.6079 944.811 97.5916L952.6 97.0512C955.005 96.8843 956.949 97.3162 958.432 98.3467C959.915 99.3772 960.733 100.999 960.887 103.212C961 104.851 960.678 106.221 959.921 107.321C959.183 108.399 958.126 109.189 956.749 109.69L962.254 117.841C962.327 117.964 962.367 118.079 962.374 118.185C962.386 118.356 962.322 118.51 962.182 118.648C962.063 118.784 961.919 118.859 961.748 118.87L960.216 118.977C959.854 119.002 959.582 118.924 959.398 118.745C959.215 118.565 959.052 118.384 958.911 118.201L953.72 110.414L948.133 110.801L948.705 119.038C948.719 119.25 948.658 119.436 948.519 119.596C948.4 119.732 948.224 119.809 947.989 119.825L946.361 119.938ZM947.945 108.088L953.212 107.722C954.808 107.612 955.977 107.199 956.719 106.485C957.459 105.749 957.784 104.721 957.692 103.402C957.602 102.104 957.14 101.141 956.305 100.515C955.491 99.8872 954.276 99.6294 952.659 99.7416L947.391 100.107L947.945 108.088ZM972.095 118.473C969.903 118.625 968.111 118.076 966.72 116.825C965.327 115.553 964.486 113.751 964.196 111.419C964.155 111.144 964.12 110.793 964.091 110.368C964.06 109.921 964.045 109.558 964.047 109.28C964.028 107.763 964.287 106.419 964.826 105.249C965.364 104.057 966.143 103.115 967.164 102.424C968.207 101.732 969.452 101.335 970.899 101.235C972.516 101.122 973.891 101.369 975.024 101.975C976.178 102.579 977.086 103.489 977.748 104.705C978.409 105.921 978.798 107.369 978.915 109.051L978.953 109.593C978.969 109.827 978.907 110.013 978.767 110.151C978.648 110.288 978.482 110.364 978.269 110.378L967.224 111.145C967.226 111.166 967.228 111.209 967.233 111.273C967.237 111.336 967.241 111.39 967.244 111.432C967.347 112.302 967.595 113.108 967.989 113.85C968.381 114.572 968.913 115.144 969.584 115.568C970.255 115.992 971.037 116.173 971.931 116.111C972.697 116.058 973.328 115.896 973.822 115.627C974.317 115.357 974.714 115.073 975.014 114.774C975.313 114.454 975.51 114.216 975.606 114.06C975.778 113.77 975.916 113.6 976.02 113.55C976.122 113.479 976.29 113.435 976.524 113.419L978.056 113.312C978.269 113.298 978.444 113.35 978.58 113.468C978.736 113.564 978.811 113.72 978.805 113.934C978.806 114.255 978.663 114.66 978.376 115.151C978.088 115.62 977.661 116.098 977.096 116.587C976.531 117.075 975.834 117.497 975.003 117.854C974.171 118.19 973.202 118.396 972.095 118.473ZM967.071 108.942L975.818 108.335L975.812 108.239C975.745 107.282 975.505 106.443 975.092 105.723C974.699 105.002 974.159 104.451 973.469 104.072C972.779 103.67 971.976 103.502 971.061 103.565C970.145 103.629 969.374 103.907 968.745 104.399C968.136 104.869 967.687 105.489 967.398 106.257C967.109 107.026 966.998 107.889 967.065 108.846L967.071 108.942ZM988.617 117.327C987.426 117.41 986.394 117.331 985.522 117.093C984.65 116.854 983.933 116.54 983.372 116.151C982.81 115.762 982.376 115.365 982.07 114.958C981.785 114.55 981.623 114.22 981.584 113.966C981.546 113.733 981.608 113.547 981.77 113.407C981.931 113.268 982.097 113.192 982.267 113.18L983.672 113.083C983.8 113.074 983.897 113.089 983.964 113.127C984.05 113.142 984.163 113.22 984.301 113.36C984.598 113.639 984.927 113.915 985.288 114.19C985.65 114.464 986.082 114.68 986.584 114.838C987.108 114.994 987.743 115.046 988.488 114.994C989.573 114.919 990.453 114.655 991.127 114.202C991.8 113.727 992.108 113.086 992.052 112.277C992.015 111.745 991.837 111.33 991.517 111.031C991.218 110.731 990.687 110.479 989.925 110.276C989.183 110.07 988.165 109.874 986.868 109.686C985.571 109.476 984.535 109.185 983.76 108.811C982.985 108.415 982.416 107.931 982.056 107.357C981.694 106.762 981.486 106.082 981.433 105.315C981.378 104.528 981.56 103.756 981.978 103C982.394 102.223 983.033 101.569 983.895 101.039C984.777 100.507 985.9 100.194 987.262 100.099C988.369 100.023 989.325 100.095 990.132 100.317C990.938 100.539 991.612 100.845 992.152 101.236C992.691 101.605 993.102 101.982 993.386 102.369C993.669 102.756 993.831 103.087 993.872 103.362C993.908 103.573 993.856 103.758 993.718 103.918C993.578 104.056 993.412 104.131 993.22 104.145L991.879 104.238C991.73 104.248 991.6 104.225 991.49 104.169C991.4 104.111 991.31 104.042 991.219 103.963C990.987 103.701 990.712 103.442 990.395 103.186C990.099 102.928 989.711 102.731 989.231 102.593C988.771 102.433 988.168 102.378 987.424 102.43C986.359 102.504 985.577 102.782 985.076 103.266C984.575 103.75 984.348 104.333 984.395 105.014C984.423 105.418 984.565 105.772 984.822 106.075C985.078 106.378 985.545 106.634 986.222 106.844C986.9 107.053 987.898 107.262 989.217 107.47C990.64 107.649 991.773 107.945 992.614 108.357C993.455 108.769 994.068 109.272 994.451 109.865C994.834 110.459 995.054 111.16 995.11 111.969C995.172 112.863 994.963 113.7 994.483 114.482C994.024 115.262 993.299 115.911 992.308 116.429C991.337 116.924 990.107 117.224 988.617 117.327ZM1005.27 116.171C1003.08 116.323 1001.29 115.774 999.899 114.523C998.506 113.251 997.665 111.449 997.375 109.117C997.334 108.842 997.299 108.491 997.27 108.066C997.239 107.619 997.224 107.256 997.226 106.978C997.207 105.461 997.466 104.117 998.005 102.947C998.543 101.755 999.322 100.813 1000.34 100.122C1001.39 99.4296 1002.63 99.0331 1004.08 98.9327C1005.7 98.8205 1007.07 99.0672 1008.2 99.673C1009.36 100.277 1010.26 101.187 1010.93 102.403C1011.59 103.619 1011.98 105.067 1012.09 106.749L1012.13 107.291C1012.15 107.525 1012.09 107.711 1011.95 107.85C1011.83 107.986 1011.66 108.062 1011.45 108.076L1000.4 108.843C1000.4 108.864 1000.41 108.907 1000.41 108.971C1000.42 109.034 1000.42 109.088 1000.42 109.13C1000.53 110 1000.77 110.806 1001.17 111.548C1001.56 112.27 1002.09 112.842 1002.76 113.266C1003.43 113.69 1004.22 113.871 1005.11 113.809C1005.88 113.756 1006.51 113.594 1007 113.325C1007.5 113.055 1007.89 112.771 1008.19 112.472C1008.49 112.152 1008.69 111.914 1008.78 111.758C1008.96 111.468 1009.1 111.298 1009.2 111.248C1009.3 111.177 1009.47 111.133 1009.7 111.117L1011.24 111.01C1011.45 110.996 1011.62 111.048 1011.76 111.166C1011.92 111.262 1011.99 111.418 1011.98 111.632C1011.98 111.953 1011.84 112.358 1011.56 112.849C1011.27 113.318 1010.84 113.796 1010.28 114.285C1009.71 114.773 1009.01 115.195 1008.18 115.552C1007.35 115.888 1006.38 116.094 1005.27 116.171ZM1000.25 106.64L1009 106.033L1008.99 105.937C1008.92 104.98 1008.68 104.141 1008.27 103.421C1007.88 102.7 1007.34 102.149 1006.65 101.77C1005.96 101.368 1005.15 101.2 1004.24 101.263C1003.32 101.327 1002.55 101.605 1001.92 102.097C1001.31 102.567 1000.87 103.187 1000.58 103.955C1000.29 104.724 1000.18 105.587 1000.24 106.544L1000.25 106.64ZM1020.68 115.102C1019.62 115.176 1018.63 115.031 1017.73 114.666C1016.83 114.3 1016.09 113.775 1015.5 113.088C1014.92 112.401 1014.6 111.6 1014.53 110.685C1014.43 109.217 1014.95 108.005 1016.08 107.05C1017.21 106.094 1018.72 105.412 1020.62 105.002L1025.33 104.002L1025.27 103.076C1025.19 102.055 1024.84 101.277 1024.21 100.744C1023.59 100.209 1022.62 99.9876 1021.3 100.079C1020.35 100.146 1019.58 100.391 1019.01 100.815C1018.47 101.238 1018.1 101.756 1017.9 102.368C1017.8 102.696 1017.59 102.871 1017.27 102.893L1015.83 102.993C1015.6 103.009 1015.41 102.958 1015.27 102.839C1015.16 102.698 1015.09 102.531 1015.08 102.339C1015.06 102.02 1015.15 101.618 1015.35 101.134C1015.57 100.648 1015.92 100.164 1016.4 99.6815C1016.88 99.1992 1017.5 98.7817 1018.27 98.4291C1019.06 98.0538 1020.03 97.8262 1021.18 97.7465C1022.45 97.6579 1023.54 97.7536 1024.43 98.0336C1025.33 98.2923 1026.04 98.6813 1026.57 99.2007C1027.12 99.7186 1027.52 100.321 1027.78 101.009C1028.07 101.695 1028.23 102.4 1028.28 103.123L1029 113.466C1029.02 113.679 1028.95 113.865 1028.82 114.025C1028.7 114.161 1028.53 114.237 1028.32 114.252L1026.85 114.354C1026.62 114.37 1026.43 114.318 1026.29 114.2C1026.16 114.06 1026.08 113.883 1026.06 113.67L1025.97 112.298C1025.72 112.7 1025.37 113.109 1024.93 113.524C1024.49 113.919 1023.93 114.268 1023.24 114.572C1022.55 114.855 1021.7 115.032 1020.68 115.102ZM1021.18 112.662C1022.06 112.601 1022.84 112.365 1023.54 111.953C1024.24 111.52 1024.76 110.895 1025.11 110.08C1025.48 109.263 1025.63 108.258 1025.54 107.067L1025.48 106.173L1021.82 106.972C1020.32 107.29 1019.21 107.731 1018.47 108.295C1017.74 108.837 1017.4 109.492 1017.46 110.258C1017.5 110.854 1017.7 111.342 1018.07 111.723C1018.46 112.081 1018.93 112.337 1019.47 112.492C1020.04 112.645 1020.61 112.702 1021.18 112.662ZM1033.9 113.865C1033.68 113.879 1033.5 113.828 1033.34 113.711C1033.2 113.571 1033.13 113.394 1033.11 113.181L1032.06 98.0816C1032.05 97.8688 1032.1 97.6834 1032.22 97.5256C1032.36 97.3663 1032.53 97.2792 1032.75 97.2645L1034.21 97.1626C1034.43 97.1478 1034.61 97.2098 1034.77 97.3484C1034.93 97.487 1035.02 97.6628 1035.03 97.8756L1035.13 99.2802C1035.51 98.5271 1036.05 97.9438 1036.77 97.5303C1037.49 97.1168 1038.37 96.8739 1039.42 96.8016L1040.69 96.713C1040.91 96.6982 1041.08 96.7609 1041.22 96.901C1041.36 97.0198 1041.43 97.1857 1041.45 97.3985L1041.54 98.7073C1041.55 98.9202 1041.5 99.0948 1041.38 99.2314C1041.26 99.3679 1041.1 99.4436 1040.89 99.4584L1038.97 99.5913C1037.82 99.671 1036.94 100.074 1036.33 100.801C1035.71 101.507 1035.45 102.434 1035.53 103.583L1036.18 112.969C1036.19 113.181 1036.13 113.368 1035.99 113.527C1035.85 113.665 1035.67 113.741 1035.46 113.756L1033.9 113.865ZM1051.23 112.983C1049.71 113.088 1048.39 112.891 1047.24 112.394C1046.11 111.873 1045.21 111.091 1044.54 110.047C1043.87 108.981 1043.46 107.684 1043.31 106.155C1043.27 105.837 1043.23 105.412 1043.19 104.88C1043.15 104.348 1043.13 103.921 1043.13 103.601C1043.07 102.065 1043.3 100.734 1043.82 99.6077C1044.34 98.4597 1045.12 97.5607 1046.17 96.9108C1047.23 96.2381 1048.52 95.8494 1050.03 95.7445C1051.26 95.6589 1052.33 95.7561 1053.23 96.036C1054.14 96.3145 1054.91 96.6999 1055.52 97.1921C1056.13 97.6842 1056.6 98.2293 1056.92 98.8273C1057.26 99.4238 1057.46 99.998 1057.52 100.55C1057.55 100.761 1057.5 100.936 1057.36 101.074C1057.22 101.212 1057.04 101.288 1056.83 101.303L1055.3 101.409C1055.09 101.424 1054.92 101.393 1054.81 101.315C1054.7 101.216 1054.58 101.053 1054.46 100.826C1054 99.8101 1053.43 99.112 1052.74 98.7322C1052.05 98.3523 1051.22 98.1963 1050.24 98.2642C1048.96 98.3528 1047.94 98.8189 1047.19 99.6625C1046.46 100.505 1046.12 101.8 1046.18 103.55C1046.21 104.318 1046.26 105.062 1046.33 105.785C1046.52 107.547 1047.03 108.794 1047.87 109.527C1048.74 110.237 1049.81 110.548 1051.08 110.459C1052.06 110.391 1052.87 110.121 1053.5 109.65C1054.13 109.179 1054.6 108.408 1054.91 107.339C1055 107.097 1055.09 106.93 1055.19 106.838C1055.29 106.724 1055.45 106.66 1055.66 106.645L1057.19 106.539C1057.41 106.524 1057.59 106.575 1057.75 106.692C1057.91 106.81 1057.98 106.976 1057.98 107.19C1057.99 107.638 1057.92 108.103 1057.78 108.583C1057.65 109.063 1057.4 109.561 1057.05 110.077C1056.73 110.57 1056.3 111.027 1055.77 111.449C1055.24 111.849 1054.59 112.193 1053.82 112.482C1053.07 112.748 1052.2 112.915 1051.23 112.983ZM1062.4 111.887C1062.19 111.902 1062 111.85 1061.84 111.733C1061.71 111.593 1061.63 111.417 1061.62 111.204L1060.15 90.0066C1060.13 89.7938 1060.18 89.6191 1060.3 89.4826C1060.44 89.3233 1060.62 89.2362 1060.83 89.2215L1062.42 89.1107C1062.66 89.0945 1062.84 89.1564 1062.98 89.2965C1063.12 89.4154 1063.19 89.5812 1063.21 89.794L1063.73 97.2321C1064.25 96.4687 1064.91 95.8347 1065.71 95.3302C1066.51 94.8257 1067.55 94.5291 1068.82 94.4405C1070.21 94.3445 1071.4 94.5719 1072.4 95.1226C1073.42 95.6506 1074.21 96.4403 1074.78 97.4918C1075.36 98.5204 1075.7 99.7477 1075.8 101.174L1076.43 110.176C1076.44 110.389 1076.39 110.574 1076.27 110.732C1076.16 110.869 1075.98 110.945 1075.74 110.961L1074.15 111.072C1073.94 111.087 1073.75 111.035 1073.59 110.918C1073.45 110.778 1073.38 110.601 1073.36 110.389L1072.75 101.546C1072.65 100.056 1072.2 98.9213 1071.42 98.1415C1070.64 97.3405 1069.55 96.9886 1068.14 97.0861C1066.82 97.1776 1065.79 97.6771 1065.04 98.5845C1064.29 99.4706 1063.96 100.659 1064.07 102.148L1064.68 110.991C1064.7 111.204 1064.64 111.389 1064.53 111.547C1064.41 111.684 1064.23 111.76 1064 111.776L1062.4 111.887Z" fill="white"/>
<path d="M1109.13 80.5779L1114.67 92.5229L1127.26 96.3605L1115.32 101.901L1111.48 114.496L1105.94 102.551L1093.34 98.7137L1105.29 93.1736L1109.13 80.5779Z" fill="white" fill-opacity="0.2"/>
<path d="M1154.21 105.838C1152.43 105.962 1150.86 105.75 1149.52 105.201C1148.2 104.651 1147.14 103.752 1146.35 102.502C1145.58 101.23 1145.12 99.5615 1144.98 97.4972L1144.08 84.5363C1144.06 84.3022 1144.11 84.1169 1144.23 83.9803C1144.35 83.8225 1144.52 83.7355 1144.76 83.7192L1146.39 83.6063C1146.62 83.59 1146.81 83.652 1146.94 83.7921C1147.1 83.9094 1147.19 84.0852 1147.2 84.3193L1148.11 97.344C1148.25 99.4296 1148.85 100.939 1149.9 101.871C1150.95 102.803 1152.32 103.21 1154.02 103.092C1155.71 102.976 1157 102.383 1157.91 101.315C1158.84 100.245 1159.23 98.6677 1159.09 96.582L1158.19 83.5574C1158.17 83.3233 1158.22 83.1379 1158.34 83.0014C1158.48 82.8421 1158.65 82.755 1158.87 82.7403L1160.53 82.6251C1160.74 82.6103 1160.92 82.673 1161.05 82.8131C1161.21 82.9305 1161.3 83.1062 1161.31 83.3403L1162.21 96.3011C1162.36 98.3655 1162.12 100.082 1161.51 101.45C1160.92 102.795 1160.01 103.832 1158.78 104.559C1157.54 105.286 1156.02 105.712 1154.21 105.838ZM1166.3 104.679C1166.13 104.69 1165.96 104.638 1165.81 104.52C1165.67 104.401 1165.59 104.257 1165.58 104.087C1165.58 104.001 1165.58 103.926 1165.6 103.861C1165.64 103.773 1165.66 103.707 1165.68 103.663L1172.28 92.8443L1164.63 83.399C1164.56 83.2758 1164.51 83.1397 1164.5 82.9907C1164.49 82.8204 1164.55 82.667 1164.66 82.5305C1164.78 82.3939 1164.93 82.3197 1165.1 82.3079L1167.01 82.175C1167.23 82.1603 1167.4 82.2017 1167.54 82.2992C1167.67 82.3755 1167.8 82.4951 1167.91 82.6579L1174.09 90.2489L1179.12 81.8805C1179.19 81.7043 1179.29 81.5693 1179.41 81.4753C1179.55 81.3585 1179.72 81.2935 1179.91 81.2802L1181.73 81.154C1181.9 81.1422 1182.05 81.1957 1182.19 81.3145C1182.33 81.4333 1182.4 81.5779 1182.41 81.7482C1182.42 81.8971 1182.39 82.0384 1182.31 82.172L1176.14 92.6083L1184.13 102.383C1184.18 102.422 1184.22 102.484 1184.24 102.567C1184.27 102.63 1184.28 102.704 1184.29 102.789C1184.3 102.959 1184.25 103.112 1184.13 103.249C1184.01 103.385 1183.86 103.46 1183.66 103.474L1181.72 103.609C1181.53 103.622 1181.35 103.581 1181.19 103.485C1181.06 103.387 1180.93 103.278 1180.82 103.158L1174.31 95.2697L1168.98 103.98C1168.88 104.115 1168.77 104.24 1168.65 104.355C1168.53 104.47 1168.36 104.535 1168.15 104.55L1166.3 104.679ZM1195.44 102.657C1195.21 102.673 1195.02 102.622 1194.89 102.503C1194.75 102.363 1194.67 102.186 1194.66 101.973L1193.21 81.1274C1193.19 80.8933 1193.25 80.7079 1193.36 80.5714C1193.48 80.4136 1193.66 80.3265 1193.89 80.3103L1201.14 79.8075C1203.33 79.6554 1205.12 79.8627 1206.51 80.4295C1207.89 80.9962 1208.94 81.9072 1209.65 83.1626C1210.35 84.3967 1210.78 85.9495 1210.93 87.8208C1211.02 88.777 1211.09 89.617 1211.14 90.3405C1211.19 91.0641 1211.24 91.8949 1211.28 92.8328C1211.37 94.7937 1211.16 96.4447 1210.63 97.7857C1210.12 99.104 1209.23 100.128 1207.96 100.858C1206.7 101.565 1205 101.994 1202.85 102.143L1195.44 102.657ZM1197.65 99.777L1202.5 99.4403C1203.97 99.3384 1205.12 99.055 1205.97 98.5901C1206.81 98.1252 1207.4 97.4326 1207.72 96.5121C1208.06 95.5902 1208.19 94.3943 1208.11 92.9244C1208.11 92.2829 1208.09 91.7281 1208.06 91.2599C1208.02 90.7704 1207.99 90.2916 1207.96 89.8234C1207.93 89.3339 1207.87 88.782 1207.78 88.1678C1207.59 86.1064 1207 84.6187 1206 83.7046C1204.99 82.7694 1203.38 82.3785 1201.17 82.5321L1196.47 82.8576L1197.65 99.777ZM1222.45 101.103C1220.26 101.255 1218.47 100.706 1217.08 99.4553C1215.69 98.1833 1214.84 96.3812 1214.55 94.049C1214.51 93.7739 1214.48 93.4234 1214.45 92.9978C1214.42 92.5509 1214.4 92.1883 1214.41 91.9102C1214.39 90.3932 1214.65 89.0494 1215.18 87.8786C1215.72 86.6866 1216.5 85.745 1217.52 85.054C1218.57 84.3615 1219.81 83.9651 1221.26 83.8647C1222.87 83.7524 1224.25 83.9992 1225.38 84.6049C1226.54 85.2092 1227.44 86.1192 1228.11 87.335C1228.77 88.5507 1229.16 89.9993 1229.27 91.6806L1229.31 92.2233C1229.33 92.4574 1229.27 92.6434 1229.13 92.7815C1229.01 92.918 1228.84 92.9937 1228.63 93.0084L1217.58 93.7748C1217.58 93.7961 1217.59 93.8386 1217.59 93.9025C1217.6 93.9663 1217.6 94.0195 1217.6 94.0621C1217.71 94.9317 1217.95 95.7378 1218.35 96.4803C1218.74 97.2016 1219.27 97.7742 1219.94 98.1981C1220.61 98.622 1221.4 98.8029 1222.29 98.7409C1223.06 98.6877 1223.69 98.5264 1224.18 98.2569C1224.67 97.9873 1225.07 97.7031 1225.37 97.4043C1225.67 97.0842 1225.87 96.846 1225.96 96.6896C1226.14 96.3997 1226.27 96.2297 1226.38 96.1798C1226.48 96.1085 1226.65 96.0648 1226.88 96.0486L1228.41 95.9423C1228.63 95.9275 1228.8 95.9795 1228.94 96.0984C1229.09 96.1944 1229.17 96.3496 1229.16 96.5639C1229.16 96.8846 1229.02 97.2902 1228.73 97.7805C1228.45 98.2496 1228.02 98.7283 1227.45 99.2165C1226.89 99.7048 1226.19 100.127 1225.36 100.484C1224.53 100.82 1223.56 101.026 1222.45 101.103ZM1217.43 91.5721L1226.18 90.9652L1226.17 90.8694C1226.1 89.9117 1225.86 89.073 1225.45 88.3532C1225.06 87.632 1224.52 87.0814 1223.83 86.7016C1223.14 86.3004 1222.33 86.1316 1221.42 86.1951C1220.5 86.2586 1219.73 86.5367 1219.1 87.0294C1218.49 87.4993 1218.05 88.1185 1217.76 88.887C1217.47 89.6555 1217.36 90.5186 1217.42 91.4763L1217.43 91.5721ZM1238.98 99.9569C1237.78 100.04 1236.75 99.9615 1235.88 99.7226C1235.01 99.4837 1234.29 99.1699 1233.73 98.7812C1233.17 98.3924 1232.73 97.9948 1232.43 97.5884C1232.14 97.1805 1231.98 96.8495 1231.94 96.5956C1231.9 96.363 1231.97 96.1769 1232.13 96.0374C1232.29 95.8979 1232.46 95.8223 1232.63 95.8105L1234.03 95.713C1234.16 95.7041 1234.26 95.7188 1234.32 95.7569C1234.41 95.7723 1234.52 95.85 1234.66 95.9902C1234.96 96.2689 1235.29 96.5455 1235.65 96.8198C1236.01 97.0941 1236.44 97.3101 1236.94 97.4676C1237.47 97.6237 1238.1 97.6759 1238.85 97.6243C1239.93 97.549 1240.81 97.2848 1241.49 96.8317C1242.16 96.3573 1242.47 95.7158 1242.41 94.907C1242.37 94.375 1242.2 93.9597 1241.87 93.6611C1241.58 93.3611 1241.05 93.1092 1240.28 92.9055C1239.54 92.7003 1238.52 92.5037 1237.23 92.3156C1235.93 92.1063 1234.89 91.8146 1234.12 91.4406C1233.34 91.0454 1232.77 90.5609 1232.41 89.9871C1232.05 89.3921 1231.84 88.7115 1231.79 87.9454C1231.74 87.1579 1231.92 86.3862 1232.34 85.6301C1232.75 84.8527 1233.39 84.1989 1234.25 83.6687C1235.14 83.137 1236.26 82.8239 1237.62 82.7294C1238.73 82.6526 1239.68 82.7252 1240.49 82.9473C1241.3 83.1693 1241.97 83.4754 1242.51 83.8656C1243.05 84.2346 1243.46 84.6123 1243.74 84.999C1244.03 85.3856 1244.19 85.7165 1244.23 85.9917C1244.27 86.2031 1244.21 86.3884 1244.08 86.5477C1243.94 86.6857 1243.77 86.7614 1243.58 86.7747L1242.24 86.8677C1242.09 86.8781 1241.96 86.855 1241.85 86.7985C1241.76 86.7406 1241.67 86.672 1241.58 86.5928C1241.34 86.3309 1241.07 86.0719 1240.75 85.8159C1240.46 85.5585 1240.07 85.3608 1239.59 85.2231C1239.13 85.0625 1238.53 85.0081 1237.78 85.0598C1236.72 85.1336 1235.94 85.4125 1235.43 85.8963C1234.93 86.3801 1234.71 86.9626 1234.75 87.6436C1234.78 88.048 1234.92 88.4016 1235.18 88.7046C1235.44 89.0076 1235.9 89.2639 1236.58 89.4735C1237.26 89.6831 1238.26 89.8919 1239.57 90.0998C1241 90.279 1242.13 90.5746 1242.97 90.9867C1243.81 91.3988 1244.43 91.9017 1244.81 92.4952C1245.19 93.0888 1245.41 93.7899 1245.47 94.5986C1245.53 95.4925 1245.32 96.3303 1244.84 97.1121C1244.38 97.8924 1243.66 98.5415 1242.67 99.0593C1241.7 99.5543 1240.47 99.8535 1238.98 99.9569ZM1249.74 98.8895C1249.52 98.9043 1249.34 98.853 1249.18 98.7357C1249.04 98.5955 1248.97 98.4191 1248.95 98.2062L1247.9 83.0746C1247.89 82.8618 1247.94 82.6871 1248.06 82.5506C1248.2 82.3913 1248.37 82.3042 1248.58 82.2894L1250.12 82.1831C1250.33 82.1684 1250.51 82.231 1250.64 82.3712C1250.78 82.49 1250.86 82.6558 1250.87 82.8686L1251.92 98.0003C1251.93 98.2131 1251.88 98.3984 1251.77 98.5563C1251.65 98.6928 1251.48 98.7685 1251.27 98.7832L1249.74 98.8895ZM1248.11 79.2106C1247.9 79.2254 1247.72 79.1741 1247.56 79.0567C1247.42 78.9166 1247.34 78.7401 1247.33 78.5273L1247.21 76.8035C1247.19 76.5906 1247.25 76.416 1247.37 76.2794C1247.5 76.1201 1247.68 76.0331 1247.89 76.0183L1249.9 75.8787C1250.12 75.864 1250.29 75.9267 1250.43 76.0668C1250.59 76.1841 1250.67 76.3492 1250.69 76.562L1250.81 78.2859C1250.82 78.4987 1250.76 78.6848 1250.62 78.8441C1250.5 78.9806 1250.34 79.0563 1250.13 79.0711L1248.11 79.2106ZM1263.54 104.989C1262.09 105.089 1260.89 104.98 1259.93 104.662C1258.98 104.343 1258.23 103.925 1257.66 103.408C1257.11 102.911 1256.7 102.395 1256.43 101.858C1256.18 101.34 1256.03 100.923 1255.99 100.605C1255.95 100.394 1256 100.208 1256.14 100.049C1256.3 99.8882 1256.48 99.8011 1256.67 99.7878L1258.2 99.6815C1258.39 99.6682 1258.56 99.6997 1258.69 99.776C1258.82 99.8523 1258.94 100.026 1259.05 100.297C1259.2 100.607 1259.41 100.945 1259.69 101.31C1259.98 101.697 1260.39 102.01 1260.95 102.25C1261.5 102.511 1262.25 102.608 1263.21 102.542C1264.21 102.472 1265.04 102.276 1265.7 101.952C1266.37 101.649 1266.85 101.145 1267.14 100.441C1267.46 99.7559 1267.57 98.8282 1267.49 97.6577L1267.34 95.4869C1266.88 96.1821 1266.24 96.7819 1265.44 97.2864C1264.64 97.7697 1263.62 98.0548 1262.36 98.1419C1261.17 98.2246 1260.13 98.0933 1259.25 97.748C1258.37 97.3815 1257.63 96.8662 1257.03 96.2023C1256.45 95.5156 1255.99 94.7243 1255.65 93.8284C1255.33 92.9309 1255.11 91.9836 1255 90.9863C1254.94 90.3918 1254.9 89.8066 1254.88 89.2305C1254.85 88.2273 1254.93 87.2592 1255.13 86.3264C1255.34 85.3921 1255.69 84.5446 1256.17 83.7841C1256.67 83.0221 1257.33 82.4094 1258.16 81.946C1258.98 81.4613 1259.99 81.1776 1261.18 81.0949C1262.45 81.0063 1263.53 81.178 1264.39 81.6099C1265.27 82.019 1266 82.5457 1266.58 83.1898L1266.49 81.8171C1266.47 81.6043 1266.53 81.4189 1266.64 81.2611C1266.78 81.1018 1266.96 81.0147 1267.17 81L1268.64 80.8981C1268.85 80.8833 1269.04 80.9453 1269.2 81.0839C1269.36 81.2225 1269.44 81.3983 1269.46 81.6111L1270.53 97.0939C1270.63 98.5198 1270.47 99.8031 1270.06 100.944C1269.67 102.083 1268.94 103.01 1267.88 103.725C1266.84 104.439 1265.39 104.86 1263.54 104.989ZM1262.82 95.5438C1263.89 95.47 1264.72 95.1662 1265.32 94.6324C1265.95 94.0971 1266.39 93.4467 1266.63 92.6811C1266.9 91.9141 1267.02 91.1468 1266.99 90.3792C1266.99 90.0797 1266.97 89.7172 1266.94 89.2916C1266.91 88.8446 1266.88 88.4729 1266.83 88.1765C1266.76 87.4118 1266.54 86.6681 1266.17 85.9453C1265.82 85.2211 1265.29 84.6372 1264.6 84.1935C1263.93 83.7483 1263.06 83.5626 1262 83.6364C1260.93 83.7102 1260.1 84.0141 1259.49 84.5478C1258.89 85.0603 1258.47 85.7199 1258.25 86.5266C1258.03 87.3119 1257.93 88.153 1257.94 89.0498C1257.96 89.6046 1258 90.1686 1258.06 90.7417C1258.17 91.6326 1258.38 92.4622 1258.72 93.2304C1259.05 93.9774 1259.55 94.5735 1260.22 95.0187C1260.89 95.4426 1261.76 95.6176 1262.82 95.5438ZM1275.56 97.098C1275.35 97.1128 1275.16 97.0615 1275 96.9441C1274.86 96.804 1274.79 96.6275 1274.77 96.4147L1273.72 81.2831C1273.71 81.0703 1273.76 80.8956 1273.88 80.759C1274.02 80.5997 1274.19 80.5127 1274.41 80.4979L1275.91 80.3938C1276.12 80.3791 1276.29 80.4417 1276.43 80.5818C1276.59 80.6992 1276.68 80.8643 1276.69 81.0771L1276.79 82.4817C1277.29 81.7198 1277.94 81.0865 1278.74 80.582C1279.56 80.0547 1280.63 79.7453 1281.95 79.6538C1283.33 79.5578 1284.53 79.7852 1285.53 80.3359C1286.55 80.8639 1287.34 81.6536 1287.9 82.705C1288.47 83.7352 1288.8 84.9632 1288.9 86.3891L1289.52 95.3915C1289.54 95.6043 1289.48 95.7896 1289.37 95.9474C1289.25 96.084 1289.08 96.1596 1288.87 96.1744L1287.27 96.2852C1287.06 96.2999 1286.88 96.2486 1286.72 96.1313C1286.58 95.9912 1286.5 95.8147 1286.49 95.6019L1285.88 86.7591C1285.77 85.2694 1285.33 84.1346 1284.55 83.3548C1283.77 82.5537 1282.67 82.2019 1281.27 82.2993C1279.95 82.3909 1278.91 82.8904 1278.16 83.7978C1277.43 84.6824 1277.12 85.8696 1277.22 87.3593L1277.84 96.2021C1277.85 96.4149 1277.79 96.601 1277.65 96.7603C1277.53 96.8968 1277.37 96.9725 1277.15 96.9873L1275.56 97.098Z" fill="white"/>
<path d="M1322.61 65.766L1328.15 77.711L1340.75 81.5486L1328.8 87.0888L1324.97 99.6844L1319.43 87.7394L1306.83 83.9019L1318.78 78.3617L1322.61 65.766Z" fill="white" fill-opacity="0.2"/>
<path d="M1357.75 91.3954C1357.58 91.4072 1357.43 91.3537 1357.29 91.2348C1357.15 91.116 1357.08 90.9715 1357.07 90.8012C1357.06 90.6948 1357.06 90.577 1357.08 90.4478L1363.56 69.2442C1363.63 69.0255 1363.74 68.8471 1363.88 68.7091C1364.02 68.571 1364.23 68.4917 1364.53 68.471L1366.7 68.3204C1366.98 68.3012 1367.2 68.3503 1367.36 68.4676C1367.53 68.5835 1367.67 68.7449 1367.77 68.9518L1377.09 89.0591C1377.14 89.1839 1377.17 89.2994 1377.18 89.4058C1377.19 89.5761 1377.14 89.7295 1377.02 89.8661C1376.9 90.0026 1376.76 90.0768 1376.59 90.0886L1374.96 90.2016C1374.7 90.2193 1374.51 90.1687 1374.37 90.0499C1374.25 89.9296 1374.17 89.8177 1374.12 89.7142L1372.05 85.3029L1361.58 86.0294L1360.14 90.6843C1360.13 90.7922 1360.06 90.9145 1359.94 91.051C1359.82 91.1876 1359.63 91.2647 1359.38 91.2824L1357.75 91.3954ZM1362.32 83.2198L1370.94 82.6218L1365.84 71.588L1362.32 83.2198ZM1380.93 95.8818C1380.72 95.8965 1380.53 95.8346 1380.37 95.696C1380.24 95.5771 1380.16 95.4113 1380.15 95.1985L1378.68 74.0014C1378.66 73.7886 1378.71 73.6139 1378.83 73.4774C1378.97 73.3181 1379.15 73.231 1379.36 73.2162L1380.83 73.1144C1381.04 73.0996 1381.22 73.1623 1381.35 73.3024C1381.51 73.4197 1381.6 73.5848 1381.61 73.7977L1381.71 75.2023C1382.17 74.4645 1382.81 73.832 1383.63 73.3048C1384.45 72.7775 1385.5 72.4695 1386.77 72.381C1387.97 72.2983 1388.99 72.4303 1389.85 72.7771C1390.73 73.1224 1391.46 73.6277 1392.04 74.2931C1392.64 74.957 1393.11 75.7263 1393.45 76.601C1393.79 77.4756 1394 78.423 1394.1 79.4431C1394.14 79.7821 1394.18 80.1432 1394.2 80.5263C1394.23 80.9093 1394.24 81.2719 1394.25 81.6139C1394.3 82.6156 1394.21 83.5836 1394 84.518C1393.79 85.431 1393.43 86.2579 1392.92 86.9986C1392.44 87.7165 1391.78 88.3179 1390.96 88.8026C1390.16 89.2645 1389.16 89.5368 1387.97 89.6195C1386.74 89.7052 1385.68 89.554 1384.8 89.1662C1383.93 88.7556 1383.21 88.2282 1382.63 87.5841L1383.15 94.9903C1383.16 95.2031 1383.11 95.3778 1382.99 95.5143C1382.87 95.6722 1382.7 95.7592 1382.46 95.7754L1380.93 95.8818ZM1387.12 87.0802C1388.23 87.0035 1389.07 86.7096 1389.66 86.1985C1390.26 85.6647 1390.68 85.0052 1390.9 84.2198C1391.12 83.4132 1391.22 82.5615 1391.2 81.6647C1391.18 81.046 1391.14 80.4288 1391.08 79.8131C1390.97 78.9222 1390.75 78.1033 1390.42 77.3563C1390.09 76.5881 1389.59 75.992 1388.92 75.5681C1388.27 75.1214 1387.39 74.9365 1386.28 75.0132C1385.24 75.0856 1384.41 75.3894 1383.78 75.9247C1383.18 76.4585 1382.74 77.1195 1382.47 77.9078C1382.23 78.6734 1382.11 79.4513 1382.12 80.2417C1382.13 80.5837 1382.14 80.9888 1382.18 81.457C1382.21 81.9252 1382.25 82.3395 1382.29 82.6998C1382.37 83.4432 1382.59 84.1656 1382.96 84.8671C1383.35 85.5671 1383.89 86.1283 1384.58 86.5507C1385.27 86.9731 1386.12 87.1496 1387.12 87.0802ZM1399.47 94.5956C1399.26 94.6104 1399.07 94.5484 1398.91 94.4098C1398.77 94.2909 1398.7 94.1251 1398.68 93.9123L1397.21 72.7152C1397.2 72.5024 1397.25 72.3277 1397.37 72.1912C1397.51 72.0319 1397.68 71.9448 1397.9 71.9301L1399.36 71.8282C1399.58 71.8134 1399.75 71.8761 1399.89 72.0162C1400.05 72.1336 1400.14 72.2987 1400.15 72.5115L1400.25 73.9161C1400.71 73.1784 1401.35 72.5458 1402.17 72.0186C1402.99 71.4913 1404.04 71.1834 1405.31 71.0948C1406.5 71.0121 1407.53 71.1441 1408.39 71.4909C1409.27 71.8362 1410 72.3416 1410.58 73.0069C1411.18 73.6709 1411.65 74.4402 1411.99 75.3148C1412.33 76.1895 1412.54 77.1368 1412.63 78.1569C1412.68 78.4959 1412.72 78.857 1412.74 79.2401C1412.77 79.6232 1412.78 79.9857 1412.79 80.3277C1412.83 81.3294 1412.75 82.2975 1412.54 83.2318C1412.32 84.1448 1411.96 84.9717 1411.46 85.7124C1410.97 86.4304 1410.32 87.0317 1409.5 87.5164C1408.7 87.9783 1407.7 88.2506 1406.51 88.3333C1405.27 88.419 1404.22 88.2679 1403.33 87.88C1402.47 87.4694 1401.75 86.942 1401.17 86.2979L1401.68 93.7041C1401.7 93.9169 1401.65 94.0916 1401.53 94.2282C1401.41 94.386 1401.24 94.473 1401 94.4893L1399.47 94.5956ZM1405.66 85.7941C1406.77 85.7173 1407.61 85.4234 1408.2 84.9123C1408.8 84.3786 1409.21 83.719 1409.44 82.9336C1409.66 82.127 1409.76 81.2753 1409.74 80.3785C1409.72 79.7598 1409.68 79.1426 1409.61 78.5269C1409.51 77.636 1409.29 76.8171 1408.96 76.0701C1408.63 75.3019 1408.13 74.7058 1407.46 74.2819C1406.81 73.8352 1405.93 73.6503 1404.82 73.7271C1403.78 73.7994 1402.94 74.1032 1402.32 74.6385C1401.71 75.1723 1401.28 75.8333 1401.01 76.6216C1400.77 77.3872 1400.65 78.1652 1400.66 78.9555C1400.66 79.2975 1400.68 79.7026 1400.71 80.1708C1400.75 80.6391 1400.79 81.0533 1400.83 81.4136C1400.9 82.157 1401.13 82.8795 1401.5 83.5809C1401.89 84.2809 1402.43 84.8421 1403.12 85.2645C1403.81 85.6869 1404.66 85.8635 1405.66 85.7941ZM1425.32 86.7077C1425.08 86.724 1424.9 86.6727 1424.76 86.5538C1424.62 86.4137 1424.54 86.2373 1424.53 86.0244L1423.08 65.1785C1423.07 64.9444 1423.12 64.7591 1423.24 64.6226C1423.35 64.4647 1423.53 64.3777 1423.76 64.3615L1431.01 63.8587C1433.2 63.7066 1434.99 63.9139 1436.38 64.4806C1437.77 65.0474 1438.81 65.9584 1439.52 67.2138C1440.23 68.4479 1440.65 70.0006 1440.81 71.872C1440.89 72.8282 1440.96 73.6681 1441.01 74.3917C1441.06 75.1153 1441.11 75.9461 1441.15 76.884C1441.25 78.8449 1441.03 80.4958 1440.5 81.8369C1440 83.1551 1439.1 84.1793 1437.83 84.9093C1436.57 85.6166 1434.87 86.0448 1432.72 86.1939L1425.32 86.7077ZM1427.52 83.8281L1432.37 83.4915C1433.84 83.3896 1435 83.1062 1435.84 82.6413C1436.69 82.1764 1437.27 81.4837 1437.59 80.5633C1437.93 79.6414 1438.06 78.4455 1437.98 76.9755C1437.98 76.3341 1437.97 75.7793 1437.93 75.3111C1437.9 74.8216 1437.87 74.3428 1437.83 73.8745C1437.8 73.3851 1437.74 72.8332 1437.65 72.219C1437.47 70.1575 1436.87 68.6698 1435.87 67.7558C1434.86 66.8205 1433.25 66.4297 1431.04 66.5832L1426.35 66.9088L1427.52 83.8281ZM1452.33 85.1544C1450.13 85.3065 1448.34 84.7572 1446.95 83.5065C1445.56 82.2345 1444.72 80.4324 1444.43 78.1002C1444.39 77.825 1444.35 77.4746 1444.32 77.049C1444.29 76.602 1444.28 76.2395 1444.28 75.9614C1444.26 74.4444 1444.52 73.1006 1445.06 71.9298C1445.6 70.7377 1446.37 69.7962 1447.4 69.1052C1448.44 68.4127 1449.68 68.0162 1451.13 67.9158C1452.75 67.8036 1454.12 68.0504 1455.26 68.6561C1456.41 69.2603 1457.32 70.1704 1457.98 71.3861C1458.64 72.6019 1459.03 74.0505 1459.15 75.7317L1459.18 76.2744C1459.2 76.5085 1459.14 76.6946 1459 76.8326C1458.88 76.9692 1458.71 77.0449 1458.5 77.0596L1447.46 77.826C1447.46 77.8472 1447.46 77.8898 1447.46 77.9537C1447.47 78.0175 1447.47 78.0707 1447.48 78.1133C1447.58 78.9829 1447.83 79.789 1448.22 80.5315C1448.61 81.2527 1449.14 81.8253 1449.82 82.2492C1450.49 82.6732 1451.27 82.8541 1452.16 82.7921C1452.93 82.7389 1453.56 82.5776 1454.05 82.308C1454.55 82.0385 1454.95 81.7543 1455.25 81.4555C1455.54 81.1354 1455.74 80.8972 1455.84 80.7408C1456.01 80.4509 1456.15 80.2809 1456.25 80.231C1456.35 80.1597 1456.52 80.116 1456.76 80.0997L1458.29 79.9934C1458.5 79.9787 1458.68 80.0307 1458.81 80.1495C1458.97 80.2456 1459.04 80.4008 1459.04 80.6151C1459.04 80.9358 1458.89 81.3413 1458.61 81.8317C1458.32 82.3008 1457.89 82.7794 1457.33 83.2677C1456.76 83.756 1456.07 84.1786 1455.24 84.5356C1454.4 84.8714 1453.43 85.0776 1452.33 85.1544ZM1447.3 75.6233L1456.05 75.0164L1456.04 74.9206C1455.98 73.9629 1455.74 73.1242 1455.32 72.4044C1454.93 71.6832 1454.39 71.1326 1453.7 70.7527C1453.01 70.3516 1452.21 70.1827 1451.29 70.2462C1450.38 70.3097 1449.61 70.5878 1448.98 71.0805C1448.37 71.5505 1447.92 72.1697 1447.63 72.9382C1447.34 73.7067 1447.23 74.5698 1447.3 75.5275L1447.3 75.6233ZM1468.85 84.0081C1467.66 84.0907 1466.63 84.0126 1465.75 83.7738C1464.88 83.5349 1464.17 83.2211 1463.6 82.8323C1463.04 82.4436 1462.61 82.046 1462.3 81.6396C1462.02 81.2316 1461.85 80.9007 1461.82 80.6468C1461.78 80.4142 1461.84 80.2281 1462 80.0886C1462.16 79.9491 1462.33 79.8735 1462.5 79.8616L1463.9 79.7642C1464.03 79.7553 1464.13 79.77 1464.2 79.8081C1464.28 79.8235 1464.39 79.9012 1464.53 80.0413C1464.83 80.3201 1465.16 80.5966 1465.52 80.871C1465.88 81.1453 1466.31 81.3612 1466.82 81.5188C1467.34 81.6749 1467.97 81.7271 1468.72 81.6754C1469.81 81.6001 1470.68 81.3359 1471.36 80.8829C1472.03 80.4085 1472.34 79.7669 1472.28 78.9582C1472.25 78.4262 1472.07 78.0109 1471.75 77.7123C1471.45 77.4123 1470.92 77.1604 1470.16 76.9567C1469.42 76.7515 1468.4 76.5549 1467.1 76.3668C1465.8 76.1574 1464.77 75.8658 1463.99 75.4918C1463.22 75.0966 1462.65 74.6121 1462.29 74.0383C1461.93 73.4433 1461.72 72.7627 1461.66 71.9965C1461.61 71.2091 1461.79 70.4373 1462.21 69.6812C1462.63 68.9039 1463.27 68.2501 1464.13 67.7199C1465.01 67.1882 1466.13 66.8751 1467.49 66.7806C1468.6 66.7038 1469.56 66.7764 1470.36 66.9984C1471.17 67.2205 1471.84 67.5266 1472.38 67.9168C1472.92 68.2857 1473.33 68.6635 1473.62 69.0502C1473.9 69.4368 1474.06 69.7677 1474.1 70.0429C1474.14 70.2543 1474.09 70.4396 1473.95 70.5989C1473.81 70.7369 1473.64 70.8126 1473.45 70.8259L1472.11 70.9189C1471.96 70.9292 1471.83 70.9062 1471.72 70.8497C1471.63 70.7918 1471.54 70.7232 1471.45 70.644C1471.22 70.3821 1470.94 70.1231 1470.63 69.8671C1470.33 69.6096 1469.94 69.412 1469.46 69.2742C1469 69.1137 1468.4 69.0593 1467.66 69.111C1466.59 69.1848 1465.81 69.4636 1465.31 69.9475C1464.81 70.4313 1464.58 71.0137 1464.63 71.6948C1464.66 72.0991 1464.8 72.4528 1465.05 72.7558C1465.31 73.0588 1465.78 73.3151 1466.45 73.5247C1467.13 73.7343 1468.13 73.9431 1469.45 74.1509C1470.87 74.3302 1472 74.6258 1472.85 75.0379C1473.69 75.45 1474.3 75.9528 1474.68 76.5464C1475.07 77.14 1475.29 77.8411 1475.34 78.6498C1475.4 79.5437 1475.19 80.3815 1474.71 81.1633C1474.26 81.9436 1473.53 82.5926 1472.54 83.1105C1471.57 83.6055 1470.34 83.9047 1468.85 84.0081ZM1479.61 82.9407C1479.4 82.9555 1479.21 82.9042 1479.05 82.7868C1478.92 82.6467 1478.84 82.4702 1478.82 82.2574L1477.77 67.1258C1477.76 66.913 1477.81 66.7383 1477.93 66.6017C1478.07 66.4424 1478.25 66.3554 1478.46 66.3406L1479.99 66.2343C1480.2 66.2195 1480.38 66.2822 1480.52 66.4223C1480.65 66.5412 1480.73 66.707 1480.74 66.9198L1481.79 82.0514C1481.81 82.2643 1481.76 82.4496 1481.64 82.6074C1481.52 82.744 1481.36 82.8196 1481.14 82.8344L1479.61 82.9407ZM1477.99 63.2618C1477.78 63.2766 1477.59 63.2253 1477.43 63.1079C1477.29 62.9678 1477.22 62.7913 1477.2 62.5785L1477.08 60.8546C1477.07 60.6418 1477.12 60.4671 1477.24 60.3306C1477.38 60.1713 1477.55 60.0842 1477.77 60.0695L1479.78 59.9299C1479.99 59.9152 1480.17 59.9778 1480.3 60.1179C1480.46 60.2353 1480.55 60.4004 1480.56 60.6132L1480.68 62.3371C1480.7 62.5499 1480.64 62.736 1480.5 62.8953C1480.38 63.0318 1480.21 63.1075 1480 63.1222L1477.99 63.2618ZM1493.42 89.0398C1491.97 89.1402 1490.76 89.0314 1489.8 88.7133C1488.86 88.3937 1488.1 87.9757 1487.53 87.4593C1486.98 86.9626 1486.57 86.4458 1486.3 85.9087C1486.05 85.3914 1485.91 84.9739 1485.86 84.6561C1485.83 84.4448 1485.88 84.2594 1486.02 84.1001C1486.18 83.9393 1486.35 83.8523 1486.54 83.839L1488.07 83.7327C1488.27 83.7194 1488.43 83.7509 1488.56 83.8272C1488.7 83.9034 1488.82 84.077 1488.92 84.3477C1489.07 84.6581 1489.29 84.996 1489.57 85.3613C1489.85 85.748 1490.27 86.0612 1490.82 86.3009C1491.37 86.562 1492.13 86.6593 1493.08 86.5928C1494.09 86.5234 1494.92 86.3267 1495.58 86.0028C1496.24 85.7002 1496.72 85.1965 1497.01 84.4919C1497.33 83.807 1497.45 82.8794 1497.37 81.7088L1497.21 79.5381C1496.75 80.2332 1496.12 80.8331 1495.32 81.3376C1494.52 81.8208 1493.49 82.106 1492.23 82.1931C1491.04 82.2758 1490.01 82.1445 1489.13 81.7992C1488.25 81.4326 1487.51 80.9174 1486.9 80.2535C1486.32 79.5668 1485.86 78.7755 1485.52 77.8795C1485.2 76.9821 1484.99 76.0348 1484.87 75.0374C1484.81 74.443 1484.77 73.8578 1484.75 73.2817C1484.72 72.2785 1484.81 71.3104 1485 70.3776C1485.21 69.4432 1485.56 68.5958 1486.04 67.8353C1486.54 67.0733 1487.21 66.4606 1488.03 65.9972C1488.85 65.5125 1489.86 65.2288 1491.05 65.1461C1492.33 65.0575 1493.4 65.2292 1494.26 65.6611C1495.15 66.0702 1495.88 66.5968 1496.46 67.241L1496.36 65.8683C1496.35 65.6554 1496.4 65.4701 1496.52 65.3123C1496.65 65.153 1496.83 65.0659 1497.04 65.0512L1498.51 64.9493C1498.72 64.9345 1498.91 64.9964 1499.07 65.1351C1499.23 65.2737 1499.32 65.4495 1499.33 65.6623L1500.41 81.1451C1500.5 82.571 1500.35 83.8542 1499.93 84.9949C1499.54 86.134 1498.82 87.0612 1497.75 87.7765C1496.71 88.4902 1495.27 88.9114 1493.42 89.0398ZM1492.7 79.595C1493.76 79.5211 1494.59 79.2173 1495.2 78.6835C1495.82 78.1483 1496.26 77.4979 1496.51 76.7323C1496.77 75.9653 1496.89 75.198 1496.86 74.4303C1496.86 74.1309 1496.85 73.7684 1496.82 73.3427C1496.79 72.8958 1496.75 72.5241 1496.71 72.2276C1496.63 71.4629 1496.41 70.7192 1496.04 69.9965C1495.69 69.2723 1495.17 68.6884 1494.47 68.2446C1493.8 67.7994 1492.93 67.6138 1491.87 67.6876C1490.81 67.7614 1489.97 68.0652 1489.37 68.599C1488.76 69.1115 1488.35 69.7711 1488.12 70.5777C1487.9 71.3631 1487.8 72.2042 1487.82 73.101C1487.84 73.6558 1487.87 74.2198 1487.94 74.7929C1488.04 75.6838 1488.26 76.5134 1488.59 77.2816C1488.92 78.0286 1489.42 78.6247 1490.09 79.0698C1490.76 79.4938 1491.63 79.6688 1492.7 79.595ZM1505.43 81.1492C1505.22 81.164 1505.03 81.1127 1504.88 80.9953C1504.74 80.8552 1504.66 80.6787 1504.65 80.4659L1503.6 65.3343C1503.58 65.1214 1503.63 64.9468 1503.75 64.8102C1503.89 64.6509 1504.07 64.5639 1504.28 64.5491L1505.78 64.445C1505.99 64.4302 1506.17 64.4929 1506.31 64.633C1506.46 64.7504 1506.55 64.9155 1506.57 65.1283L1506.66 66.5329C1507.17 65.7709 1507.82 65.1377 1508.62 64.6332C1509.43 64.1059 1510.5 63.7965 1511.82 63.7049C1513.21 63.609 1514.4 63.8363 1515.4 64.3871C1516.42 64.9151 1517.21 65.7048 1517.78 66.7562C1518.34 67.7863 1518.67 69.0144 1518.77 70.4403L1519.39 79.4426C1519.41 79.6555 1519.36 79.8408 1519.24 79.9986C1519.12 80.1352 1518.96 80.2108 1518.74 80.2256L1517.15 80.3363C1516.93 80.3511 1516.75 80.2998 1516.59 80.1824C1516.45 80.0423 1516.38 79.8659 1516.36 79.653L1515.75 70.8103C1515.65 69.3205 1515.2 68.1858 1514.42 67.406C1513.64 66.6049 1512.55 66.2531 1511.14 66.3505C1509.82 66.4421 1508.79 66.9415 1508.04 67.8489C1507.31 68.7336 1506.99 69.9208 1507.1 71.4105L1507.71 80.2533C1507.73 80.4661 1507.66 80.6522 1507.53 80.8115C1507.41 80.948 1507.24 81.0237 1507.03 81.0384L1505.43 81.1492Z" fill="white"/>
</g>
<defs>
<clipPath id="clip0_2_45">
<path d="M-51.3389 128.514C-52.2563 115.291 -42.2806 103.828 -29.0576 102.91L1454.21 -8.55154e-05L1462.72 122.705C1463.64 135.928 1453.66 147.391 1440.44 148.309L-42.8255 251.219L-51.3389 128.514Z" fill="white"/>
</clipPath>
</defs>
</svg>
